<svg width="259" height="200" viewBox="0 0 259 200" fill="none" xmlns="http://www.w3.org/2000/svg">
<path opacity="0.4" d="M136.256 50.8232C134.768 46.7245 127.884 21.9913 146.115 17.1469C164.345 12.3026 220.526 11.5575 230.572 19.7555C240.617 27.9535 242.849 54.0372 224.619 59.6266C206.388 65.216 148.861 55.4205 143.511 56.2729C137.372 57.2511 131.233 62.608 130.117 61.8624C129.001 61.1173 136.256 50.8232 136.256 50.8232Z" fill="#5A287F"/>
<path d="M140.939 48.2217C139.452 44.1229 132.568 19.3897 150.799 14.5454C169.029 9.70102 225.21 8.95595 235.256 17.154C245.301 25.352 247.533 51.4356 229.302 57.025C211.071 62.6144 153.545 52.819 148.195 53.6714C142.056 54.6495 135.917 60.0064 134.8 59.2608C133.684 58.5157 140.939 48.2217 140.939 48.2217Z" fill="white"/>
<path d="M149.314 39.0664V29.9829H150.414V38.0906H154.637V39.0664H149.314ZM159.054 39.2083C158.398 39.2083 157.832 39.0634 157.356 38.7737C156.882 38.4809 156.517 38.0729 156.26 37.5495C156.006 37.0232 155.879 36.4111 155.879 35.7133C155.879 35.0155 156.006 34.4005 156.26 33.8682C156.517 33.333 156.875 32.9161 157.333 32.6175C157.795 32.3159 158.333 32.1651 158.948 32.1651C159.303 32.1651 159.653 32.2242 159.999 32.3425C160.345 32.4607 160.66 32.6529 160.944 32.9191C161.228 33.1822 161.454 33.5311 161.622 33.9658C161.791 34.4005 161.875 34.9357 161.875 35.5714V36.0149H156.624V35.1101H160.811C160.811 34.7257 160.734 34.3827 160.58 34.0811C160.429 33.7795 160.213 33.5415 159.932 33.367C159.655 33.1926 159.326 33.1053 158.948 33.1053C158.531 33.1053 158.17 33.2088 157.866 33.4158C157.564 33.6198 157.332 33.886 157.169 34.2142C157.007 34.5424 156.925 34.8943 156.925 35.2698V35.873C156.925 36.3875 157.014 36.8236 157.191 37.1814C157.372 37.5362 157.622 37.8068 157.941 37.9931C158.26 38.1764 158.631 38.2681 159.054 38.2681C159.329 38.2681 159.578 38.2296 159.799 38.1527C160.024 38.0729 160.218 37.9546 160.38 37.7979C160.543 37.6382 160.669 37.4401 160.757 37.2036L161.769 37.4874C161.662 37.8304 161.483 38.132 161.232 38.3922C160.981 38.6495 160.67 38.8506 160.301 38.9954C159.931 39.1374 159.516 39.2083 159.054 39.2083ZM166.43 32.2538V33.1408H162.9V32.2538H166.43ZM163.929 30.6216H164.975V37.1149C164.975 37.4106 165.018 37.6323 165.104 37.7802C165.193 37.9251 165.305 38.0226 165.441 38.0729C165.58 38.1202 165.726 38.1439 165.88 38.1439C165.996 38.1439 166.09 38.1379 166.164 38.1261C166.238 38.1113 166.297 38.0995 166.341 38.0906L166.554 39.0309C166.483 39.0575 166.384 39.0841 166.257 39.1108C166.13 39.1403 165.969 39.1551 165.774 39.1551C165.478 39.1551 165.188 39.0915 164.904 38.9644C164.624 38.8372 164.39 38.6436 164.204 38.3834C164.02 38.1232 163.929 37.795 163.929 37.3987V30.6216ZM169.281 29.9829V30.7812C169.281 31.0237 169.237 31.2824 169.148 31.5574C169.062 31.8295 168.935 32.0941 168.766 32.3513C168.601 32.6056 168.4 32.8274 168.163 33.0166L167.596 32.5554C167.782 32.2892 167.943 32.0128 168.079 31.726C168.218 31.4362 168.287 31.1272 168.287 30.799V29.9829H169.281ZM174.526 33.7795L173.585 34.0456C173.526 33.8889 173.439 33.7366 173.324 33.5888C173.211 33.438 173.058 33.3138 172.862 33.2162C172.667 33.1187 172.417 33.0699 172.113 33.0699C171.696 33.0699 171.349 33.166 171.071 33.3582C170.796 33.5474 170.658 33.7884 170.658 34.0811C170.658 34.3413 170.753 34.5468 170.942 34.6976C171.131 34.8484 171.427 34.9741 171.829 35.0746L172.84 35.323C173.449 35.4708 173.903 35.697 174.202 36.0016C174.501 36.3032 174.65 36.692 174.65 37.1681C174.65 37.5584 174.538 37.9073 174.313 38.2148C174.091 38.5223 173.781 38.7648 173.381 38.9422C172.982 39.1196 172.518 39.2083 171.989 39.2083C171.294 39.2083 170.719 39.0575 170.263 38.7559C169.808 38.4543 169.52 38.0138 169.399 37.4342L170.392 37.1858C170.487 37.5525 170.666 37.8275 170.929 38.0108C171.195 38.1941 171.542 38.2858 171.971 38.2858C172.459 38.2858 172.846 38.1823 173.133 37.9753C173.423 37.7654 173.568 37.514 173.568 37.2213C173.568 36.9848 173.485 36.7867 173.319 36.627C173.154 36.4644 172.899 36.3431 172.556 36.2633L171.421 35.9972C170.797 35.8493 170.339 35.6202 170.046 35.3097C169.756 34.9963 169.611 34.6045 169.611 34.1343C169.611 33.7499 169.719 33.4099 169.935 33.1142C170.154 32.8185 170.451 32.5864 170.827 32.4179C171.205 32.2493 171.634 32.1651 172.113 32.1651C172.787 32.1651 173.316 32.3129 173.701 32.6086C174.088 32.9043 174.363 33.2946 174.526 33.7795ZM187.19 32.8215H186.09C186.025 32.5051 185.911 32.2272 185.748 31.9876C185.589 31.7481 185.393 31.5471 185.163 31.3844C184.935 31.2189 184.682 31.0947 184.404 31.0119C184.126 30.9291 183.837 30.8877 183.535 30.8877C182.985 30.8877 182.487 31.0267 182.04 31.3046C181.597 31.5826 181.243 31.9921 180.98 32.5332C180.72 33.0743 180.59 33.7381 180.59 34.5246C180.59 35.3112 180.72 35.975 180.98 36.5161C181.243 37.0572 181.597 37.4667 182.04 37.7447C182.487 38.0226 182.985 38.1616 183.535 38.1616C183.837 38.1616 184.126 38.1202 184.404 38.0374C184.682 37.9546 184.935 37.8319 185.163 37.6693C185.393 37.5037 185.589 37.3012 185.748 37.0616C185.911 36.8192 186.025 36.5412 186.09 36.2278H187.19C187.107 36.692 186.956 37.1075 186.737 37.4741C186.518 37.8408 186.246 38.1527 185.921 38.41C185.596 38.6643 185.231 38.8579 184.826 38.991C184.424 39.1241 183.993 39.1906 183.535 39.1906C182.76 39.1906 182.071 39.0014 181.468 38.6229C180.865 38.2444 180.39 37.7062 180.044 37.0084C179.698 36.3106 179.525 35.4827 179.525 34.5246C179.525 33.5666 179.698 32.7387 180.044 32.0409C180.39 31.343 180.865 30.8049 181.468 30.4264C182.071 30.0479 182.76 29.8587 183.535 29.8587C183.993 29.8587 184.424 29.9252 184.826 30.0583C185.231 30.1913 185.596 30.3865 185.921 30.6437C186.246 30.898 186.518 31.2085 186.737 31.5752C186.956 31.9389 187.107 32.3543 187.19 32.8215ZM191.593 39.2083C190.978 39.2083 190.438 39.062 189.974 38.7692C189.513 38.4765 189.152 38.067 188.892 37.5407C188.634 37.0143 188.506 36.3993 188.506 35.6956C188.506 34.9859 188.634 34.3665 188.892 33.8372C189.152 33.3079 189.513 32.8969 189.974 32.6042C190.438 32.3114 190.978 32.1651 191.593 32.1651C192.208 32.1651 192.746 32.3114 193.207 32.6042C193.671 32.8969 194.032 33.3079 194.289 33.8372C194.55 34.3665 194.68 34.9859 194.68 35.6956C194.68 36.3993 194.55 37.0143 194.289 37.5407C194.032 38.067 193.671 38.4765 193.207 38.7692C192.746 39.062 192.208 39.2083 191.593 39.2083ZM191.593 38.2681C192.06 38.2681 192.444 38.1483 192.746 37.9088C193.048 37.6693 193.271 37.3544 193.416 36.9641C193.561 36.5738 193.633 36.1509 193.633 35.6956C193.633 35.2402 193.561 34.8159 193.416 34.4226C193.271 34.0294 193.048 33.7115 192.746 33.469C192.444 33.2266 192.06 33.1053 191.593 33.1053C191.126 33.1053 190.741 33.2266 190.44 33.469C190.138 33.7115 189.915 34.0294 189.77 34.4226C189.625 34.8159 189.553 35.2402 189.553 35.6956C189.553 36.1509 189.625 36.5738 189.77 36.9641C189.915 37.3544 190.138 37.6693 190.44 37.9088C190.741 38.1483 191.126 38.2681 191.593 38.2681ZM197.324 34.9682V39.0664H196.278V32.2538H197.289V33.3182H197.378C197.537 32.9723 197.78 32.6943 198.105 32.4844C198.43 32.2715 198.85 32.1651 199.365 32.1651C199.826 32.1651 200.229 32.2597 200.575 32.4489C200.921 32.6352 201.19 32.9191 201.383 33.3005C201.575 33.679 201.671 34.158 201.671 34.7375V39.0664H200.624V34.8085C200.624 34.2733 200.485 33.8564 200.207 33.5577C199.929 33.2561 199.548 33.1053 199.063 33.1053C198.729 33.1053 198.43 33.1778 198.167 33.3227C197.907 33.4676 197.701 33.679 197.551 33.9569C197.4 34.2349 197.324 34.572 197.324 34.9682ZM204.63 34.9682V39.0664H203.584V32.2538H204.595V33.3182H204.684C204.843 32.9723 205.086 32.6943 205.411 32.4844C205.736 32.2715 206.156 32.1651 206.671 32.1651C207.132 32.1651 207.536 32.2597 207.881 32.4489C208.227 32.6352 208.497 32.9191 208.689 33.3005C208.881 33.679 208.977 34.158 208.977 34.7375V39.0664H207.93V34.8085C207.93 34.2733 207.791 33.8564 207.513 33.5577C207.235 33.2561 206.854 33.1053 206.369 33.1053C206.035 33.1053 205.736 33.1778 205.473 33.3227C205.213 33.4676 205.007 33.679 204.857 33.9569C204.706 34.2349 204.63 34.572 204.63 34.9682ZM213.746 39.2083C213.09 39.2083 212.523 39.0634 212.047 38.7737C211.574 38.4809 211.209 38.0729 210.952 37.5495C210.698 37.0232 210.57 36.4111 210.57 35.7133C210.57 35.0155 210.698 34.4005 210.952 33.8682C211.209 33.333 211.567 32.9161 212.025 32.6175C212.486 32.3159 213.025 32.1651 213.64 32.1651C213.994 32.1651 214.345 32.2242 214.691 32.3425C215.037 32.4607 215.352 32.6529 215.636 32.9191C215.919 33.1822 216.146 33.5311 216.314 33.9658C216.483 34.4005 216.567 34.9357 216.567 35.5714V36.0149H211.316V35.1101H215.502C215.502 34.7257 215.426 34.3827 215.272 34.0811C215.121 33.7795 214.905 33.5415 214.624 33.367C214.346 33.1926 214.018 33.1053 213.64 33.1053C213.223 33.1053 212.862 33.2088 212.557 33.4158C212.256 33.6198 212.024 33.886 211.861 34.2142C211.698 34.5424 211.617 34.8943 211.617 35.2698V35.873C211.617 36.3875 211.706 36.8236 211.883 37.1814C212.064 37.5362 212.313 37.8068 212.633 37.9931C212.952 38.1764 213.323 38.2681 213.746 38.2681C214.021 38.2681 214.269 38.2296 214.491 38.1527C214.716 38.0729 214.91 37.9546 215.072 37.7979C215.235 37.6382 215.361 37.4401 215.449 37.2036L216.461 37.4874C216.354 37.8304 216.175 38.132 215.924 38.3922C215.672 38.6495 215.362 38.8506 214.992 38.9954C214.623 39.1374 214.207 39.2083 213.746 39.2083ZM220.927 39.2083C220.288 39.2083 219.738 39.0575 219.277 38.7559C218.816 38.4543 218.461 38.0389 218.212 37.5096C217.964 36.9803 217.84 36.3757 217.84 35.6956C217.84 35.0037 217.967 34.3931 218.221 33.8638C218.479 33.3315 218.836 32.9161 219.295 32.6175C219.756 32.3159 220.294 32.1651 220.909 32.1651C221.388 32.1651 221.82 32.2538 222.204 32.4312C222.589 32.6086 222.904 32.857 223.149 33.1763C223.394 33.4957 223.547 33.8682 223.606 34.294H222.559C222.479 33.9835 222.302 33.7085 222.027 33.469C221.755 33.2266 221.388 33.1053 220.927 33.1053C220.519 33.1053 220.161 33.2118 219.854 33.4247C219.549 33.6346 219.311 33.9318 219.139 34.3162C218.971 34.6976 218.887 35.1456 218.887 35.6601C218.887 36.1864 218.969 36.6447 219.135 37.035C219.304 37.4253 219.54 37.7284 219.845 37.9443C220.152 38.1601 220.513 38.2681 220.927 38.2681C221.199 38.2681 221.446 38.2207 221.668 38.1261C221.889 38.0315 222.077 37.8955 222.231 37.7181C222.385 37.5407 222.494 37.3278 222.559 37.0794H223.606C223.547 37.4815 223.4 37.8437 223.167 38.166C222.936 38.4854 222.63 38.7397 222.249 38.9289C221.87 39.1152 221.43 39.2083 220.927 39.2083ZM228.099 32.2538V33.1408H224.568V32.2538H228.099ZM225.597 30.6216H226.644V37.1149C226.644 37.4106 226.687 37.6323 226.773 37.7802C226.861 37.9251 226.974 38.0226 227.11 38.0729C227.249 38.1202 227.395 38.1439 227.549 38.1439C227.664 38.1439 227.759 38.1379 227.833 38.1261C227.907 38.1113 227.966 38.0995 228.01 38.0906L228.223 39.0309C228.152 39.0575 228.053 39.0841 227.926 39.1108C227.799 39.1403 227.637 39.1551 227.442 39.1551C227.147 39.1551 226.857 39.0915 226.573 38.9644C226.292 38.8372 226.059 38.6436 225.872 38.3834C225.689 38.1232 225.597 37.795 225.597 37.3987V30.6216Z" fill="#683353"/>
<path opacity="0.4" d="M237.516 12.3507C237.762 9.8386 238.669 7.42319 239.49 5.05249C239.974 3.65813 240.629 0.686096 242.168 0.848167C243.839 1.02421 242.343 3.77884 241.911 4.83454C240.863 7.39525 240.004 10.0241 239 12.5999C238.706 13.355 237.428 13.2493 237.516 12.3507Z" fill="#5A287F"/>
<path opacity="0.4" d="M243.291 16.6441C243.589 15.9713 243.944 15.3967 244.356 14.7831C245.415 13.2015 246.766 11.7876 248.084 10.4217C248.942 9.53427 252.69 4.62465 253.612 7.70064C253.749 8.15611 253.507 8.61941 253.197 8.93126C251.587 10.5553 249.959 12.1615 248.352 13.7889C247.325 14.8273 246.346 15.9165 245.377 17.0085C243.671 18.9293 243.1 17.0722 243.291 16.6441Z" fill="#5A287F"/>
<path opacity="0.4" d="M245.298 22.6306C248.976 21.5252 253.386 21.9136 257.236 21.3117C259.001 21.0356 259.452 23.3672 257.726 23.6958C254.097 24.3866 248.958 24.8354 245.346 23.7282C244.804 23.5617 244.741 22.7983 245.298 22.6306Z" fill="#5A287F"/>
<path d="M237.051 11.5108C237.296 8.99876 238.203 6.58335 239.025 4.21265C239.508 2.81829 240.163 -0.153748 241.702 0.00832276C243.374 0.184365 241.877 2.939 241.445 3.99469C240.398 6.5554 239.539 9.1843 238.534 11.7601C238.239 12.5151 236.962 12.4095 237.051 11.5108Z" fill="white"/>
<path d="M243.477 15.3375C243.775 14.6646 244.13 14.0895 244.542 13.4765C245.601 11.8949 246.952 10.481 248.27 9.1151C249.128 8.22763 252.876 3.31801 253.798 6.394C253.935 6.84947 253.693 7.31277 253.384 7.62462C251.773 9.24867 250.145 10.8548 248.538 12.4823C247.512 13.5206 246.532 14.6098 245.563 15.7019C243.857 17.6227 243.287 15.7656 243.477 15.3375Z" fill="white"/>
<path d="M245.485 21.3279C249.162 20.2225 253.572 20.6109 257.422 20.009C259.187 19.7329 259.638 22.0645 257.913 22.3931C254.284 23.0839 249.145 23.5326 245.533 22.4255C244.991 22.259 244.927 21.4956 245.485 21.3279Z" fill="white"/>
<path d="M62.2602 127.207C62.6405 127.041 63.0374 126.852 63.4673 126.611C64.7983 125.859 66.3444 124.644 67.94 122.247C68.5435 121.337 68.9073 119.89 69.0065 118.129C69.2959 112.647 66.9727 104.099 60.9788 99.0975C60.3091 98.5353 59.6725 97.9896 59.069 97.444C50.0317 89.2996 48.9239 83.5545 48.866 83.1817C47.5688 84.1242 38.6068 28.3348 54.1655 17.5126C56.1092 16.1567 58.1099 15.0654 60.1355 14.189L60.0189 13.9245C60.0189 13.9245 41.4169 12.891 34.8029 28.3927C28.1889 43.8943 30.3053 67.9363 25.9153 81.0982C17.8544 105.282 0.699277 110.035 4.83305 125.537C8.35502 138.74 12.7368 135.557 14.9608 140.005C17.1351 144.346 12.1333 155.11 22.5008 156.416C23.3193 145.759 24.733 134.656 27.1554 129.671C29.8672 124.072 33.4222 121.817 34.6045 121.178C39.5898 124.875 41.698 136.772 48.2376 137.732C51.2884 138.177 53.5537 137.714 55.2237 136.788C58.2 135.127 59.2665 131.992 59.3988 129.878C59.5071 128.174 60.615 127.934 62.2602 127.207Z" fill="#1D1D1D"/>
<path d="M88.8486 109.259C89.2207 109.325 89.8821 109.515 90.6344 110.011C92.2135 109.847 101.787 109.367 115.412 118.718C124.573 125.001 130.137 130.73 133.791 131.987L133.808 131.946C137.115 126.159 140.975 116.998 130.782 103.497C120.579 89.9875 121.059 80.8601 122.787 57.4713C124.44 35.1489 113.908 24.6243 109.005 20.9535C103.441 16.7784 97.885 14.6867 93.0981 13.7029C93.0899 13.6946 93.0816 13.6946 93.0651 13.6946C87.4936 12.5537 82.9704 12.9175 80.7473 13.2399C78.9863 13.2482 61.6815 13.6698 51.414 26.8813C43.998 36.4221 42.2958 49.8651 42.0304 58.2897L42.1792 58.298C45.0232 58.1409 47.4043 59.2074 49.2149 61.0015C79.2839 47.4841 76.4564 17.4729 76.3572 16.4312C76.597 17.291 83.8815 42.8377 110.659 47.3601C110.634 48.9888 110.461 62.7294 111.073 65.1849C112.106 69.3186 115.016 71.9312 114.38 79.2397C113.512 89.2682 99.5146 98.198 86.9645 101.033L87.3778 108.804C87.5763 108.813 88.1633 108.879 88.8247 109.25C88.8238 109.243 88.8329 109.251 88.8486 109.259Z" fill="#1D1D1D"/>
<path d="M82.2386 16.3124C82.2386 16.3124 82.3089 16.467 82.4395 16.7572C82.5768 17.0531 82.7752 17.483 83.0555 18.0064C83.3225 18.5405 83.6871 19.1614 84.0848 19.8914C84.513 20.5983 84.9661 21.4209 85.5431 22.2617C85.8242 22.6875 86.1161 23.1314 86.4203 23.5903C86.7436 24.0359 87.0776 24.4956 87.4207 24.9693C88.0904 25.9308 88.8865 26.8741 89.6885 27.8687C90.5202 28.8385 91.3916 29.8347 92.3225 30.802C92.7987 31.2758 93.2799 31.7536 93.7619 32.2332C94.2365 32.7209 94.7367 33.1872 95.2616 33.6271L96.8085 34.9714C97.3194 35.422 97.8816 35.8089 98.4108 36.2264C98.949 36.6315 99.4839 37.0333 100.011 37.4301C100.568 37.7889 101.117 38.1428 101.657 38.4917C102.198 38.8356 102.731 39.1746 103.253 39.5053C103.8 39.7938 104.337 40.0758 104.858 40.3511C105.379 40.6239 105.887 40.8885 106.377 41.1448C106.866 41.4052 107.38 41.5738 107.85 41.7805C108.799 42.1732 109.673 42.5229 110.452 42.8156C111.252 43.0496 111.949 43.253 112.524 43.42C113.673 43.7482 114.33 43.9202 114.33 43.9202C114.679 44.0111 115.034 43.8028 115.126 43.4539C115.21 43.1381 115.044 42.8148 114.753 42.6899L114.694 42.6643C114.694 42.6643 114.084 42.4022 113.015 41.9698C112.482 41.7574 111.833 41.4994 111.09 41.2034C110.375 40.8446 109.568 40.4404 108.688 39.9989C108.253 39.7707 107.777 39.5814 107.328 39.2978C106.873 39.0266 106.403 38.7463 105.919 38.4578C105.436 38.1717 104.939 37.8782 104.431 37.5781C103.946 37.2416 103.449 36.8985 102.945 36.5488C102.44 36.2016 101.927 35.8486 101.407 35.4914C100.912 35.0987 100.411 34.701 99.9055 34.3009C99.4037 33.8966 98.8704 33.5254 98.386 33.0872L96.9168 31.7842C95.9107 30.9443 95.0128 29.9803 94.0744 29.094C93.1774 28.1647 92.2986 27.2412 91.4685 26.3293C90.6723 25.3876 89.8572 24.5138 89.1577 23.6225C88.4343 22.7503 87.7754 21.9054 87.1768 21.1166C86.5658 20.3362 86.0566 19.5863 85.5655 18.9447C85.1116 18.2817 84.6949 17.7121 84.3865 17.2251C84.0715 16.7456 83.8235 16.3686 83.6548 16.1115C83.4895 15.8485 83.401 15.708 83.401 15.708L83.3919 15.6931C83.1993 15.3872 82.795 15.2946 82.4891 15.4873C82.2055 15.6642 82.1047 16.018 82.2386 16.3124Z" fill="#323232"/>
<path d="M91.4908 19.1261C91.4908 19.1261 91.5768 19.1592 91.7388 19.2195C91.8951 19.2823 92.1266 19.3749 92.4193 19.4915C93.0129 19.7246 93.8545 20.081 94.8549 20.515C95.8486 20.9656 97.0044 21.4914 98.2041 22.1181C98.8159 22.4083 99.4029 22.7878 100.034 23.1086C100.641 23.4682 101.256 23.8402 101.859 24.223C102.442 24.6323 103.071 24.9869 103.61 25.4326C104.162 25.8608 104.741 26.2453 105.225 26.7008C105.723 27.1415 106.239 27.5342 106.649 27.9831C107.064 28.4246 107.526 28.7917 107.847 29.2141C108.199 29.6168 108.52 29.9863 108.806 30.3137C109.063 30.6643 109.287 30.9702 109.471 31.2223C109.853 31.7275 110.072 32.016 110.072 32.016L110.121 32.0805C110.338 32.3682 110.748 32.4244 111.034 32.207C111.282 32.0193 111.358 31.6903 111.235 31.4183C111.235 31.4183 111.076 31.0652 110.796 30.4468C110.648 30.1418 110.484 29.7565 110.256 29.339C109.999 28.9388 109.708 28.4874 109.392 27.9955C109.088 27.4871 108.657 27.0241 108.233 26.5016C107.814 25.97 107.312 25.4747 106.782 24.9696C106.27 24.4429 105.678 23.9783 105.083 23.4938C104.498 22.9961 103.832 22.5985 103.204 22.1437C101.896 21.3162 100.543 20.5671 99.2201 19.9975C98.5637 19.7007 97.9205 19.4378 97.2971 19.2228C96.6837 18.9839 96.0859 18.8078 95.5369 18.6416C94.4357 18.3167 93.5006 18.1158 92.8376 18.0025C92.5102 17.9397 92.2415 17.9083 92.0588 17.8826C91.8802 17.862 91.786 17.8504 91.786 17.8504C91.4247 17.8074 91.0981 18.0645 91.0551 18.4258C91.0187 18.7317 91.199 19.0145 91.4751 19.1186L91.4908 19.1261Z" fill="#323232"/>
<path d="M70.0482 19.486C70.0482 19.486 70.0094 19.6414 69.9358 19.9316C69.8589 20.2177 69.7465 20.6377 69.6018 21.1726C69.3281 22.2498 68.842 23.7694 68.2658 25.585C67.9475 26.4845 67.6448 27.4708 67.2554 28.4902C67.0669 29.0011 66.8735 29.5261 66.6759 30.0635C66.4634 30.5943 66.246 31.1358 66.0252 31.6864C65.6085 32.7992 65.0604 33.8955 64.5768 35.0414C64.0592 36.1715 63.4714 37.2877 62.9109 38.4162C62.2792 39.5025 61.7195 40.6368 61.0407 41.6695C60.3504 42.6922 59.7733 43.776 59.0334 44.6888C58.3133 45.6139 57.7064 46.5878 56.9632 47.365C56.611 47.7717 56.2687 48.1677 55.9372 48.5505C55.6147 48.9441 55.2923 49.3112 54.9418 49.6228C54.263 50.2685 53.6537 50.8795 53.1089 51.4194C52.5425 51.932 51.9977 52.3156 51.5736 52.6669C50.7146 53.3548 50.2276 53.764 50.2276 53.764L50.1673 53.8153C49.892 54.0468 49.8564 54.4577 50.0879 54.733C50.2971 54.9819 50.6526 55.0348 50.9221 54.8727C50.9221 54.8727 51.4843 54.5346 52.4599 53.9154C52.9386 53.5946 53.5545 53.2424 54.2018 52.7645C54.8269 52.2585 55.537 51.6897 56.2977 51.0473C56.6928 50.7406 57.0616 50.3793 57.4295 49.9924C57.8024 49.6088 58.1884 49.2119 58.5853 48.8035C59.4104 48.0107 60.1181 47.0442 60.8994 46.081C61.2929 45.6007 61.6773 45.1013 62.0213 44.5664C62.3776 44.0381 62.7372 43.504 63.101 42.9658C63.8252 41.8861 64.4238 40.7121 65.0951 39.5786C65.6887 38.4063 66.2733 37.2281 66.8016 36.05C67.3034 34.8611 67.8201 33.6979 68.2153 32.5355C68.4237 31.9584 68.6279 31.3913 68.8288 30.8357C69.0024 30.2718 69.1719 29.7196 69.3372 29.183C69.6869 28.1148 69.9308 27.0806 70.1797 26.1339C70.6485 24.2316 70.9254 22.6219 71.1073 21.4934C71.2032 20.932 71.2503 20.4781 71.2867 20.1697C71.319 19.8663 71.3371 19.7043 71.3371 19.7043C71.3752 19.3446 71.1139 19.0222 70.7551 18.9842C70.4261 18.9494 70.1284 19.1636 70.0507 19.4752L70.0482 19.486Z" fill="#323232"/>
<path d="M55.9983 28.2816C55.9983 28.2816 55.5015 29.7797 54.7566 32.026C54.3829 33.1437 53.9472 34.4475 53.4801 35.8447C52.9857 37.2279 52.4888 38.7111 51.915 40.1579C51.6422 40.8871 51.3636 41.613 51.0535 42.3083C50.7691 43.0177 50.469 43.7022 50.1557 44.3512C49.8614 45.0151 49.5414 45.6252 49.2363 46.2081C48.9461 46.805 48.6113 47.3118 48.3228 47.8054C48.0441 48.3105 47.7275 48.7057 47.4629 49.0803C47.3298 49.2679 47.205 49.4432 47.0901 49.6044C46.9677 49.7574 46.8404 49.8781 46.7329 49.9988C46.298 50.4742 46.0492 50.7635 46.0492 50.7635L45.9715 50.8545C45.7383 51.1265 45.7689 51.5357 46.0409 51.7689C46.2691 51.9656 46.5973 51.9739 46.8338 51.8094C46.8338 51.8094 47.1777 51.5696 47.7804 51.119C47.9276 51.0041 48.1037 50.8834 48.2723 50.7371C48.4294 50.5792 48.5981 50.4097 48.7775 50.2278C49.133 49.859 49.5679 49.4548 49.9242 48.9471C50.2987 48.4494 50.7468 47.9253 51.0998 47.3143C51.476 46.7133 51.8977 46.0882 52.2333 45.3995C52.5987 44.7224 52.9666 44.0189 53.2841 43.2839C53.6231 42.5547 53.9265 41.8023 54.2241 41.0475C54.5358 40.296 54.7731 39.5238 55.0385 38.7731C55.3039 38.0224 55.5039 37.2659 55.723 36.5425C56.129 35.0866 56.4547 33.715 56.6829 32.5295C57.1558 30.1674 57.2782 28.5437 57.2782 28.5437L57.279 28.5379C57.3063 28.1749 57.0343 27.8591 56.6722 27.8318C56.3646 27.8095 56.0909 28.0013 55.9983 28.2816Z" fill="#323232"/>
<path d="M41.9319 89.8173C41.9344 89.8016 41.898 90.0397 41.884 90.4465C41.8633 90.8499 41.8699 91.4311 41.9443 92.1686C42.0452 92.897 42.1717 93.7907 42.4801 94.772C42.6041 95.2739 42.8224 95.7765 43.015 96.3239C43.2581 96.8455 43.5003 97.4077 43.8202 97.955C44.1386 98.5023 44.4668 99.077 44.881 99.6218C45.2596 100.193 45.721 100.726 46.1963 101.274C46.6544 101.841 47.224 102.317 47.7564 102.861C48.3277 103.359 48.9395 103.832 49.5579 104.316C50.2011 104.744 50.8551 105.18 51.5181 105.622C52.1853 106.042 52.7922 106.427 53.4081 106.866C54.6424 107.735 55.8297 108.702 56.8763 109.769C57.9338 110.825 58.8374 112.012 59.407 113.246C59.9816 114.481 60.1271 115.745 59.6956 116.748C59.2839 117.762 58.3083 118.561 57.2087 119.079C56.94 119.22 56.6506 119.327 56.3704 119.44C56.0463 119.575 55.728 119.709 55.4138 119.84L54.9699 120.032C54.8086 120.124 54.6482 120.215 54.4895 120.303C54.1811 120.495 53.8488 120.64 53.5908 120.873C52.4714 121.649 51.6513 122.829 51.3884 123.982C51.1106 125.135 51.261 126.141 51.471 126.887C51.6835 127.641 51.9679 128.175 52.163 128.534C52.2655 128.712 52.3482 128.848 52.4102 128.939C52.4764 129.036 52.5103 129.088 52.5103 129.088C52.712 129.387 53.1171 129.464 53.4155 129.263C53.6917 129.077 53.7793 128.715 53.6313 128.426L53.5991 128.363C53.5991 128.363 53.5817 128.328 53.547 128.261C53.5081 128.189 53.4552 128.071 53.3866 127.917C53.2543 127.607 53.0857 127.133 52.9608 126.53C52.8393 125.931 52.8112 125.187 53.0567 124.455C53.2965 123.722 53.857 123.029 54.7226 122.469C54.9144 122.301 55.1641 122.225 55.3865 122.093L55.7305 121.909L56.1761 121.742C56.4621 121.637 56.7531 121.531 57.0491 121.422C57.3939 121.304 57.7453 121.192 58.095 121.035C58.7952 120.735 59.5087 120.353 60.1743 119.813C60.8381 119.277 61.4442 118.556 61.8294 117.686C62.2221 116.822 62.3767 115.838 62.3122 114.903C62.2494 113.963 61.9981 113.07 61.6343 112.256C60.8977 110.63 59.8287 109.245 58.6456 108.037C57.4633 106.821 56.1455 105.791 54.8078 104.861C54.139 104.395 53.4304 103.946 52.7823 103.568C52.1523 103.174 51.5305 102.783 50.9196 102.399C50.3508 101.977 49.7894 101.559 49.257 101.135C48.7618 100.673 48.2177 100.272 47.7903 99.7896C47.3422 99.3225 46.904 98.8711 46.5444 98.3817C46.1484 97.9187 45.8359 97.4243 45.5258 96.953C44.9364 95.9973 44.4717 95.0705 44.1443 94.214C43.793 93.3649 43.6169 92.582 43.4697 91.9396C43.3573 91.2939 43.2762 90.7796 43.2589 90.4357C43.2308 90.0943 43.2382 89.9355 43.2374 89.919C43.2647 89.5585 42.9951 89.2452 42.6363 89.2171C42.2734 89.1873 41.9592 89.4577 41.9319 89.8173Z" fill="#323232"/>
<path d="M31.1933 85.0625C31.1933 85.0625 30.9602 86.0893 30.4236 87.8883C30.164 88.7853 29.8035 89.8626 29.3637 91.0837C28.89 92.2908 28.3683 93.6582 27.6779 95.0835C26.9984 96.5113 26.189 98.026 25.1456 99.4645C24.8934 99.8308 24.6339 100.199 24.3337 100.535C24.0369 100.871 23.7699 101.252 23.4408 101.565C23.1192 101.887 22.7952 102.209 22.4669 102.538C22.1081 102.82 21.7477 103.104 21.3831 103.392C20.9697 103.707 20.553 104.023 20.1338 104.341C19.7254 104.625 19.2938 105.066 18.873 105.427C18.4299 105.8 18.0752 106.218 17.6883 106.625C17.2931 107.024 16.9533 107.472 16.6044 107.917C15.2229 109.701 14.0778 111.726 13.328 113.918C12.5856 116.105 12.2127 118.463 12.45 120.808C12.5566 121.389 12.6161 121.975 12.7782 122.543C12.9683 123.103 13.0824 123.683 13.3644 124.206L13.7397 125.002C13.8662 125.263 14.0497 125.498 14.2035 125.745L14.6475 126.412L15.084 127.04C15.404 127.467 15.5974 127.852 15.819 128.241C16.0497 128.611 16.244 129.051 16.4449 129.465C16.6573 129.875 16.821 130.308 16.9897 130.732C17.1683 131.154 17.3195 131.58 17.4543 132.01C18.0215 133.709 18.4208 135.38 18.6639 136.941C18.9061 138.5 19.0756 139.945 19.1078 141.224C19.1682 142.505 19.0938 143.611 18.9962 144.509C18.8722 145.398 18.7151 146.07 18.5696 146.503C18.4026 146.918 18.3133 147.139 18.3133 147.139L18.267 147.254C18.1331 147.587 18.2943 147.964 18.6275 148.097C18.9416 148.225 19.2972 148.084 19.4485 147.789C19.4485 147.789 19.5857 147.518 19.8428 147.008C20.0586 146.493 20.3207 145.731 20.5075 144.749C20.6753 143.77 20.8233 142.577 20.8399 141.216C20.8845 139.854 20.8109 138.321 20.5993 136.663C20.4009 135.003 20.0454 133.22 19.5005 131.368C19.3732 130.902 19.2244 130.435 19.0475 129.967C18.8805 129.497 18.7176 129.02 18.4993 128.551C18.2893 128.079 18.105 127.602 17.8231 127.115C17.5601 126.631 17.2914 126.121 17.0062 125.728L16.5804 125.091L16.1828 124.466C16.0695 124.275 15.9248 124.098 15.8322 123.89L15.5553 123.265C15.3362 122.863 15.2675 122.39 15.1195 121.951C14.9988 121.5 14.9641 121.019 14.8707 120.555C14.6888 118.643 15.0063 116.625 15.6685 114.722C16.3291 112.815 17.3162 111.004 18.5382 109.413C18.8474 109.018 19.1442 108.613 19.4939 108.259C19.8345 107.9 20.1537 107.505 20.5083 107.2C20.8762 106.876 21.1524 106.546 21.5856 106.229C21.9816 105.916 22.3743 105.604 22.7637 105.296C24.5784 103.988 25.8665 102.305 26.943 100.692C28.0252 99.0693 28.8197 97.429 29.4786 95.8995C30.1599 94.375 30.622 92.9232 31.0247 91.6418C31.4008 90.3504 31.7018 89.221 31.9118 88.2818C32.1358 87.3459 32.2598 86.5977 32.3516 86.0893C32.4334 85.575 32.4764 85.3014 32.4764 85.3014C32.5335 84.9451 32.2904 84.6102 31.9341 84.5532C31.5918 84.4986 31.2702 84.7202 31.1933 85.0525V85.0625Z" fill="#323232"/>
<path d="M35.5907 91.2541C35.5907 91.2541 35.589 91.3079 35.5857 91.4112C35.5849 91.5204 35.5849 91.6816 35.5832 91.8924C35.5915 92.3033 35.594 92.906 35.6742 93.6616C35.7386 94.4223 35.8709 95.3358 36.0578 96.3825C36.2703 97.4242 36.5332 98.5998 36.9796 99.8383C37.3822 101.093 37.9775 102.398 38.6662 103.752C39.421 105.07 40.2643 106.458 41.3961 107.697C41.9178 108.355 42.5511 108.928 43.1695 109.532C43.7168 110.079 44.3915 110.646 44.9396 111.206C46.0061 112.27 47.0553 113.57 47.5389 114.817C47.9903 116.111 47.7043 116.882 46.5245 117.432C45.9598 117.694 45.2645 117.841 44.5643 117.87L44.3022 117.887L44.2691 117.889L44.2526 117.891C44.3013 117.894 44.1203 117.884 44.3584 117.897L44.2823 117.889L44.1302 117.872C43.9401 117.848 43.6945 117.84 43.592 117.788C43.4581 117.746 43.325 117.71 43.1894 117.678L42.6652 117.499C41.2581 116.99 39.8145 116.386 38.4289 115.879C37.0383 115.369 35.6882 114.922 34.3828 114.645C33.7421 114.483 33.0939 114.405 32.4887 114.324C31.8727 114.28 31.2825 114.248 30.7269 114.268C29.6091 114.322 28.631 114.526 27.8671 114.812C27.4876 114.97 27.1536 115.117 26.8659 115.247C26.6038 115.425 26.3798 115.576 26.1979 115.698C25.8416 115.945 25.6514 116.077 25.6514 116.077C25.3579 116.282 25.2852 116.686 25.4894 116.98C25.6787 117.253 26.0425 117.336 26.3294 117.18L26.4451 117.118C26.4451 117.118 26.6138 117.027 26.9304 116.856C27.0858 116.77 27.2793 116.666 27.505 116.543C27.7539 116.465 28.0358 116.375 28.3467 116.267C28.9816 116.081 29.791 115.977 30.7335 116.001C31.2047 116.021 31.714 116.089 32.2431 116.165C32.7756 116.289 33.3361 116.362 33.9173 116.546C35.083 116.848 36.329 117.323 37.6418 117.875C38.9663 118.419 40.3106 119.097 41.8756 119.688L42.4767 119.909L43.2348 120.116C43.5151 120.197 43.678 120.199 43.888 120.231L44.0393 120.25L44.1145 120.26C44.3658 120.273 44.1972 120.263 44.2584 120.267L44.2799 120.265L44.3237 120.263L44.6709 120.252C45.5961 120.224 46.56 120.084 47.515 119.656C48.4484 119.252 49.4595 118.488 49.9241 117.311C50.3896 116.139 50.2102 114.91 49.8621 113.96C49.6728 113.493 49.462 113.037 49.2181 112.623C48.956 112.236 48.717 111.811 48.4285 111.461C48.1391 111.109 47.8614 110.747 47.5621 110.408L46.6237 109.431C45.997 108.813 45.4042 108.315 44.7767 107.731C44.217 107.206 43.635 106.715 43.1571 106.137C42.1253 105.05 41.3159 103.834 40.5611 102.674C39.8766 101.47 39.2664 100.299 38.8365 99.1538C37.9403 96.8802 37.4368 94.8745 37.202 93.4566C37.0764 92.7489 36.9995 92.1892 36.9548 91.8097C36.9358 91.6245 36.9201 91.4832 36.9102 91.3873C36.9027 91.2864 36.8986 91.2343 36.8986 91.2343L36.8978 91.2219C36.8705 90.8614 36.5563 90.5911 36.195 90.6192C35.861 90.6481 35.6031 90.9259 35.5907 91.2541Z" fill="#323232"/>
<path d="M115.238 51.2318C115.238 51.2318 115.082 52.4554 114.888 54.5951C114.801 55.6665 114.695 56.9678 114.573 58.4601C114.465 59.9541 114.354 61.6398 114.285 63.4827C114.21 65.3255 114.137 67.3221 114.113 69.4378C114.068 71.5526 114.072 73.7865 114.168 76.0989C114.206 77.2547 114.249 78.4304 114.337 79.6217C114.405 80.8123 114.489 82.0177 114.623 83.2338C114.683 83.8415 114.744 84.4525 114.806 85.0642C114.893 85.6769 114.981 86.2903 115.067 86.9054C115.216 88.1356 115.483 89.3708 115.749 90.601C115.858 91.2178 116.073 91.8279 116.246 92.4397C116.445 93.0524 116.575 93.6575 116.83 94.2743C117.05 94.8431 117.268 95.4094 117.487 95.9766C117.716 96.5454 117.989 97.1249 118.238 97.6929C119.271 99.9533 120.406 102.071 121.557 104.071C122.686 106.082 123.843 107.963 124.819 109.788C125.776 111.614 126.63 113.361 127.209 115.04C127.54 115.868 127.716 116.698 127.978 117.467C128.156 118.252 128.328 119.001 128.467 119.709C128.561 120.424 128.649 121.094 128.729 121.714C128.772 122.338 128.782 122.914 128.807 123.436C128.819 123.695 128.828 123.942 128.838 124.174C128.829 124.406 128.821 124.624 128.814 124.828C128.799 125.233 128.786 125.579 128.775 125.86C128.754 126.422 128.744 126.72 128.744 126.72L128.741 126.776C128.728 127.136 129.009 127.439 129.369 127.451C129.713 127.464 130.005 127.207 130.042 126.87C130.042 126.87 130.076 126.56 130.14 125.977C130.171 125.684 130.21 125.325 130.256 124.901C130.278 124.688 130.304 124.461 130.329 124.218C130.333 123.973 130.336 123.713 130.339 123.439C130.342 122.888 130.362 122.278 130.351 121.613C130.299 120.947 130.243 120.229 130.185 119.461C130.076 118.699 129.935 117.889 129.786 117.035C129.563 116.201 129.38 115.302 129.063 114.411C128.5 112.596 127.661 110.729 126.728 108.801C125.766 106.889 124.697 104.93 123.58 102.938C122.463 100.95 121.381 98.8669 120.431 96.7339C120.205 96.1965 119.963 95.6798 119.744 95.1225C119.531 94.5537 119.318 93.9841 119.105 93.4128C118.894 92.9011 118.773 92.3025 118.6 91.751C118.446 91.1847 118.255 90.6366 118.158 90.0438C117.933 88.8756 117.643 87.7239 117.492 86.5317C117.402 85.9406 117.31 85.3511 117.22 84.7633C117.154 84.1689 117.089 83.5761 117.024 82.9858C116.879 81.8068 116.785 80.6287 116.704 79.4622C116.605 78.2981 116.551 77.1431 116.5 76.0055C116.436 74.8695 116.409 73.7493 116.379 72.6522C116.332 71.5559 116.303 70.4828 116.292 69.4353C116.245 67.3436 116.252 65.3627 116.264 63.5339C116.306 59.8772 116.344 56.824 116.427 54.6901C116.501 52.5571 116.543 51.3377 116.543 51.3377C116.556 50.9764 116.274 50.6729 115.912 50.6605C115.57 50.649 115.282 50.9011 115.238 51.2318Z" fill="#323232"/>
<path d="M107.796 93.9534C107.796 93.9534 107.777 94.0808 107.741 94.3197C107.713 94.5636 107.647 94.9298 107.616 95.3854C107.584 95.8409 107.523 96.3965 107.504 97.0339C107.468 97.6705 107.443 98.3923 107.475 99.1802C107.469 99.9681 107.542 100.822 107.631 101.728C107.692 102.636 107.904 103.587 108.067 104.573C108.2 105.063 108.335 105.559 108.472 106.064C108.548 106.333 108.592 106.532 108.7 106.863L108.972 107.564C109.151 108.032 109.329 108.504 109.576 109.008C109.809 109.501 110.028 110.016 110.295 110.468C111.299 112.345 112.492 114.08 113.619 115.635C114.171 116.421 114.732 117.151 115.203 117.857C115.451 118.206 115.671 118.552 115.874 118.881C116.096 119.21 116.269 119.532 116.427 119.842C117.086 121.083 117.251 122.123 117.081 122.834C117.052 123.2 116.9 123.47 116.833 123.662C116.758 123.857 116.718 123.96 116.718 123.96L116.665 124.101C116.537 124.433 116.704 124.806 117.037 124.934C117.33 125.046 117.656 124.929 117.816 124.671C117.816 124.671 117.892 124.547 118.036 124.314C118.167 124.072 118.436 123.752 118.56 123.225C118.751 122.727 118.828 122.061 118.788 121.331C118.734 120.599 118.548 119.801 118.22 119.035C118.064 118.645 117.891 118.247 117.683 117.866C117.491 117.469 117.267 117.081 117.033 116.695C116.57 115.91 116.068 115.119 115.539 114.32C114.493 112.715 113.39 111.048 112.48 109.306C112.021 108.422 111.619 107.648 111.245 106.668L110.963 105.97L110.77 105.34C110.629 104.896 110.489 104.457 110.352 104.026C110.253 103.579 110.157 103.138 110.061 102.705C109.957 102.275 109.859 101.852 109.804 101.429C109.672 100.589 109.533 99.7945 109.462 99.0471C109.283 97.5614 109.193 96.3056 109.155 95.4267C109.135 94.991 109.12 94.6487 109.109 94.4156C109.102 94.175 109.1 94.0477 109.1 94.0477L109.099 94.0378C109.09 93.6756 108.79 93.3888 108.427 93.3987C108.106 93.4053 107.844 93.6451 107.796 93.9534Z" fill="#323232"/>
<path d="M95.3956 99.5619C95.3956 99.5619 95.3898 99.6248 95.3791 99.7413C95.37 99.8653 95.3543 100.043 95.3543 100.26C95.346 100.697 95.3584 101.319 95.4585 102.055C95.5378 102.797 95.7214 103.646 95.981 104.542C96.1256 104.986 96.2621 105.452 96.4547 105.904C96.6539 106.355 96.8259 106.824 97.0731 107.264C97.5311 108.157 98.0693 109.014 98.6712 109.748C98.9465 110.132 99.2715 110.458 99.5749 110.768C99.8667 111.088 100.168 111.365 100.469 111.599C100.76 111.84 101.03 112.057 101.277 112.234C101.534 112.404 101.766 112.538 101.953 112.653C102.33 112.876 102.549 112.992 102.549 112.992C102.869 113.163 103.269 113.041 103.44 112.721C103.567 112.48 103.532 112.197 103.372 111.997L103.325 111.941C103.325 111.941 103.179 111.758 102.917 111.46C102.785 111.311 102.629 111.131 102.442 110.935C102.272 110.721 102.08 110.483 101.872 110.221C101.652 109.972 101.448 109.676 101.228 109.366C101 109.065 100.778 108.736 100.56 108.385C100.328 108.044 100.108 107.681 99.9023 107.299C99.6741 106.932 99.4707 106.541 99.2797 106.145C98.8655 105.367 98.5323 104.542 98.2016 103.776C98.0636 103.382 97.8941 103.01 97.7693 102.646C97.6395 102.281 97.5154 101.937 97.4022 101.619C97.1831 100.977 97.0061 100.433 96.8871 100.054C96.7631 99.6711 96.6994 99.4759 96.6994 99.4627C96.6978 99.1056 96.4076 98.8187 96.0513 98.8203C95.7164 98.822 95.4419 99.0766 95.4113 99.4032L95.3956 99.5619Z" fill="#323232"/>
<path d="M75.8355 123.265L77.6296 183.006C90.7088 146.29 90.8577 121.089 90.8163 117.891C89.6093 122.701 86.6081 129.447 85.029 129.879C82.7472 130.507 78.4315 125.512 76.4969 123.082L75.8355 123.265Z" fill="#F0E7ED"/>
<path d="M75.5213 122.231C75.5213 122.231 71.2387 130.141 67.8738 130.705C66.8735 130.869 64.3766 127.786 63.4672 126.612C63.0373 126.852 62.6405 127.042 62.2602 127.208L77.5882 183.964C77.5882 183.964 77.613 183.93 77.6626 183.856L77.6295 183.005L75.8355 123.264L76.4969 123.081C76.1918 122.7 75.943 122.379 75.7784 122.155C75.7363 122.131 75.6701 122.106 75.6048 122.064L75.5213 122.231Z" fill="#F0E7ED"/>
<path d="M75.6421 122.392C75.6421 122.392 75.7074 126.212 75.805 131.943C75.943 137.673 76.1274 145.313 76.3109 152.952C76.559 160.589 76.8061 168.229 76.9913 173.956C77.2154 179.683 77.3642 183.502 77.3642 183.502C77.3692 183.623 77.4709 183.716 77.5899 183.711C77.709 183.706 77.8016 183.608 77.7999 183.49C77.7999 183.49 77.7338 179.669 77.6346 173.938C77.4973 168.208 77.3138 160.569 77.1311 152.93C76.8839 145.292 76.6375 137.653 76.4531 131.925C76.2282 126.198 76.0778 122.379 76.0778 122.379C76.0728 122.259 75.9711 122.165 75.8512 122.17C75.733 122.174 75.6404 122.273 75.6421 122.392Z" fill="#BCCED1"/>
<path d="M53.199 72.7667C53.5222 68.3931 52.0663 63.8129 49.214 61.002C79.2831 47.4845 76.4556 17.4734 76.3563 16.4316C76.5961 17.2915 83.8806 42.8382 110.658 47.3605C110.634 48.9892 110.46 62.7299 111.072 65.1853C112.105 69.3191 115.015 71.9317 114.379 79.2402C113.511 89.2687 99.5137 98.1984 86.9636 101.033L87.377 108.805L87.5093 111.351L87.6581 111.434C86.2534 113.972 82.1858 120.372 75.9347 122.232C75.9347 122.232 75.8768 122.207 75.7776 122.156C75.7355 122.132 75.6693 122.107 75.604 122.066C74.5532 121.546 71.2545 119.85 69.0065 118.131C69.2959 112.648 66.9727 104.1 60.9787 99.0988C60.3091 98.5366 59.6725 97.9909 59.0689 97.4453C50.0317 89.3009 48.9238 83.5558 48.866 83.1829C51.9919 80.9102 52.8931 76.8922 53.199 72.7667Z" fill="#F7CFB5"/>
<path d="M53.1989 72.7667C53.5222 68.3931 52.0663 63.8129 49.214 61.002C47.4042 59.2079 45.0232 58.1414 42.1783 58.2985L42.0295 58.2902C42.0212 58.5713 42.0121 58.8441 42.0047 59.1087C42.2114 59.0839 43.2457 61.3417 43.4523 61.3417C48.5121 61.3417 50.4797 64.6984 50.4797 71.8829C50.4797 78.53 48.2632 84.2172 43.7243 84.9943C45.8987 84.7629 47.5687 84.1263 48.8667 83.1838C51.9919 80.9102 52.893 76.8922 53.1989 72.7667Z" fill="#0F100C"/>
<path d="M33.4816 72.0791C33.4816 79.123 37.4252 84.8689 42.3519 85.0756C42.8314 85.0674 43.2861 85.0343 43.7243 84.993C48.2631 84.2158 51.7769 78.7262 51.7769 72.0791C51.7769 64.8946 47.6844 59.0742 42.6247 59.0742C42.418 59.0742 42.2113 59.0825 42.0046 59.1073C41.9633 60.8352 38.0362 62.4308 37.9701 60.8931C35.2831 63.1509 33.4816 67.3178 33.4816 72.0791Z" fill="#2A2927"/>
<path d="M46.1658 71.817C46.1658 76.3476 44.2618 80.1507 41.0044 80.1507C40.7811 80.1507 40.5662 80.1342 40.3512 80.1011C40.8812 80.3078 41.4351 80.4153 42.0047 80.4153C45.3861 80.4153 48.6196 76.6312 48.4393 71.9551C48.2326 66.5812 45.4027 63.4833 42.0295 63.4668C42.0378 63.5991 42.0378 63.7314 42.0378 63.8554C44.7992 64.5333 46.1658 67.7659 46.1658 71.817Z" fill="#353433"/>
<path d="M38.2274 64.6986C38.5193 64.41 39.9661 63.2046 42.0305 63.4667C44.8514 63.8239 46.9083 67.8898 46.9083 71.9409C46.9083 76.4715 44.2627 80.1506 41.0045 80.1506C40.7813 80.1506 40.5663 80.1341 40.3513 80.101C37.4081 79.6463 35.1097 76.1657 35.1097 71.9409C35.1097 68.7993 36.3755 66.0793 38.2274 64.6986Z" fill="#3F3E3E"/>
<path d="M138 105.497C138.38 107.3 138.827 109.597 139.19 112.103C152.509 113.789 160.206 109.003 161.512 108.1C161.082 106.009 160.578 103.81 160.008 101.586C159.263 102.041 149.855 103.232 138 105.497Z" fill="#EBFFFF"/>
<path d="M55.8198 146.489C57.7461 149.796 77.5883 183.966 77.5883 183.966L62.2602 127.209C60.615 127.936 59.5071 128.176 59.3997 129.879C59.2674 131.995 58.2009 135.129 55.2245 136.79C55.0104 137.973 54.1002 143.546 55.8198 146.489Z" fill="#683353"/>
<path d="M77.5882 183.964C77.5882 183.964 57.7461 149.794 55.8198 146.487C54.1001 143.543 55.0104 137.971 55.2245 136.79C53.5537 137.715 51.2892 138.179 48.2385 137.733C41.6988 136.774 39.5906 124.876 34.6053 121.18C33.423 121.818 29.868 124.073 27.1562 129.672C24.7339 134.657 23.3201 145.76 22.5016 156.418C21.5012 169.281 21.369 181.485 21.369 181.485C37.2426 191.33 60.0528 192.281 77.8859 191.025L77.8685 190.852L77.6618 183.857C77.613 183.929 77.5882 183.964 77.5882 183.964Z" fill="#75375C"/>
<path d="M113.213 151.233C115.529 153.483 129.078 165.859 142.629 162.471C166.563 156.485 164.604 124.374 161.917 110.112C161.793 109.458 161.661 108.78 161.512 108.102C160.206 109.004 152.509 113.79 139.19 112.105C140.281 119.586 140.687 128.855 136.701 131.74C135.883 132.335 134.932 132.377 133.791 131.987C130.137 130.731 124.573 125.002 115.412 118.719C101.787 109.367 92.2135 109.848 90.6344 110.012C91.9076 110.839 93.4205 112.55 94.1233 116.032C95.7768 124.167 98.2571 138.477 98.2571 144.555C98.2571 151.482 78.9523 181.833 77.6626 183.858L77.8693 190.853L77.8867 191.026C93.4958 189.926 105.285 187.133 105.285 187.133C105.285 187.133 115.413 178.038 116.653 167.084C116.976 164.238 115.106 157.37 113.213 151.233Z" fill="#75375C"/>
<path d="M75.6049 122.066C74.5541 121.546 71.2553 119.851 69.0074 118.131C68.9082 119.893 68.5444 121.34 67.9409 122.248C66.3452 124.646 64.7992 125.86 63.4681 126.613C64.3784 127.787 66.8743 130.87 67.8747 130.706C71.2396 130.142 75.5222 122.232 75.5222 122.232L75.6049 122.066Z" fill="#EBFFFF"/>
<path d="M91.3371 114.277C91.1635 111.193 89.9076 109.846 88.8486 109.259C88.832 109.25 88.8238 109.242 88.8238 109.25C88.1623 108.879 87.5754 108.813 87.3769 108.805L87.5092 111.351L87.658 111.434C86.2534 113.972 82.1857 120.372 75.9347 122.232C75.9347 122.232 75.8768 122.206 75.7776 122.156C75.9421 122.381 76.1909 122.702 76.496 123.083C78.4314 125.513 82.7471 130.507 85.0281 129.879C86.6072 129.448 89.6083 122.702 90.8154 117.892C91.1808 116.435 91.3875 115.154 91.3371 114.277Z" fill="#EBFFFF"/>
<path opacity="0.2" d="M60.9788 99.1008C60.3091 98.5386 59.6725 97.9929 59.069 97.4473C63.9873 99.8275 71.1313 102.185 79.8618 101.978C82.1023 101.92 84.4999 101.597 86.9636 101.035L87.2919 107.213C78.8234 107.027 70.3169 104.519 62.9613 101.029C62.3503 100.344 61.6931 99.6952 60.9788 99.1008Z" fill="#5A287F"/>
<path d="M136.9 93.4927C136.668 93.3778 131.584 90.7322 130.368 92.7495C129.128 94.8172 137.115 101.704 137.115 101.704C137.115 101.704 137.503 103.183 137.999 105.499C150.243 107.251 159.263 102.041 160.007 101.588C156.724 88.7571 151.541 74.9751 148.689 75.314C145.705 75.6695 147.656 85.6485 147.656 85.6485C147.656 85.6485 142.282 73.0405 139.388 74.0739C136.494 75.1073 141.248 87.7153 141.248 87.7153C141.248 87.7153 135.254 78.621 132.774 80.2746C130.335 81.8942 136.668 93.0893 136.9 93.4927Z" fill="#F7CFB5"/>
<path d="M90.6343 110.012C89.882 109.516 89.2206 109.326 88.8485 109.26C89.9068 109.848 91.1634 111.194 91.3371 114.278C91.3875 115.155 91.1808 116.435 90.8162 117.892C90.8575 121.091 90.7087 146.291 77.6295 183.007L77.6625 183.858C78.9531 181.833 99.6294 151.498 99.6294 144.57C99.6294 138.492 95.7767 124.166 94.1232 116.031C93.4213 112.551 91.9083 110.839 90.6343 110.012Z" fill="#683353"/>
<path d="M75.9239 16.5081L75.9313 16.5329L75.9321 16.5387L75.9354 16.5503C76.2256 17.7077 76.5993 18.8147 77.0127 19.9168C77.4269 21.0156 77.8759 22.1019 78.3686 23.1693C79.3715 25.2948 80.5223 27.3518 81.8079 29.3261C82.447 30.3165 83.1414 31.2698 83.8615 32.2032C84.5891 33.1325 85.3497 34.0353 86.1392 34.9133C86.9387 35.783 87.763 36.6296 88.6253 37.439C89.4934 38.2402 90.3731 39.0347 91.3147 39.7515C91.7736 40.126 92.2539 40.4716 92.7384 40.8114C93.2187 41.1578 93.6999 41.5017 94.2042 41.8117C95.1889 42.4698 96.2223 43.0477 97.2541 43.6265C98.3091 44.1614 99.3632 44.6996 100.457 45.1493C100.994 45.3957 101.544 45.614 102.104 45.805C102.664 45.9959 103.208 46.2274 103.777 46.3862L105.473 46.8946C106.04 47.0542 106.619 47.1765 107.19 47.3187C107.761 47.4667 108.337 47.5891 108.918 47.6833C109.507 47.7859 110.056 47.9008 110.676 47.9926C111.831 48.1133 112.981 48.2538 114.141 48.3588L117.674 48.4671C117.915 48.4745 118.116 48.286 118.123 48.0455C118.131 47.814 117.955 47.6189 117.728 47.599L117.696 47.5965L114.279 47.2939C113.135 47.1336 111.988 46.936 110.841 46.7582L109.182 46.406C108.62 46.2977 108.065 46.1621 107.516 46.0017C106.966 45.8471 106.41 45.7124 105.866 45.5421L104.243 45.0013C103.698 44.8327 103.179 44.5929 102.645 44.3929C102.114 44.1878 101.585 43.9787 101.07 43.7348C100.02 43.2916 99.0126 42.7633 98.0023 42.2392C97.0169 41.672 96.0281 41.1082 95.0889 40.4658C94.6069 40.164 94.1472 39.8284 93.69 39.491C93.227 39.1595 92.769 38.8239 92.3316 38.4584C91.4379 37.7557 90.5706 37.0174 89.7307 36.2502C88.8915 35.4796 88.0896 34.6711 87.3083 33.8402C86.5369 33.001 85.7937 32.1354 85.0802 31.245C84.3766 30.3463 83.6937 29.4311 83.0356 28.496C81.7285 26.621 80.5438 24.6549 79.5012 22.6137C78.9688 21.5984 78.4761 20.5625 78.0164 19.5117C77.5658 18.4609 77.1318 17.3886 76.7754 16.3163L76.7796 16.3328L76.7705 16.3089L76.7457 16.2394C76.663 16.0145 76.415 15.8996 76.1893 15.9815C75.976 16.0592 75.8619 16.2915 75.9239 16.5081Z" fill="#323232"/>
<path d="M50.0076 60.9444C50.0076 60.9444 50.7947 60.5963 52.1729 59.9862C52.864 59.7001 53.6792 59.233 54.6291 58.7535C55.5956 58.2897 56.5885 57.6242 57.7162 56.957C58.7935 56.2145 59.9898 55.4457 61.1564 54.4957C61.4532 54.265 61.7549 54.0311 62.06 53.7946C62.351 53.5408 62.6453 53.2845 62.943 53.0249C63.5407 52.5065 64.1393 51.965 64.7098 51.3714C65.2959 50.7952 65.8829 50.2007 66.4335 49.5575C66.7146 49.2409 66.9982 48.9226 67.2818 48.6034C67.548 48.2686 67.8167 47.9321 68.0854 47.594C69.1709 46.2488 70.1548 44.7896 71.0683 43.2915C71.9422 41.7695 72.7632 40.2152 73.4345 38.6245C74.1397 37.0479 74.6912 35.439 75.1856 33.8748C76.1256 30.7265 76.6349 27.6973 76.8796 25.093C77.1392 22.4871 77.0813 20.3012 77.0135 18.7783C76.973 18.016 76.9118 17.4183 76.8663 17.0107C76.8159 16.6056 76.7886 16.3898 76.7886 16.3898L76.7878 16.384C76.7589 16.1451 76.5406 15.9756 76.3017 16.0053C76.0702 16.0343 75.9032 16.2418 75.9214 16.4725C75.9214 16.4725 75.9883 17.3182 75.9933 18.8072C75.9966 20.2937 75.9098 22.4234 75.5824 24.9492C75.4319 26.2133 75.1922 27.5733 74.8904 28.9978C74.5886 30.4231 74.1686 31.9005 73.7098 33.4184C73.2146 34.924 72.6689 36.4708 71.9736 37.9821C71.3114 39.5083 70.5061 40.9948 69.6529 42.4491C68.7641 43.881 67.8539 45.3055 66.8171 46.6043C66.5617 46.9317 66.3087 47.2583 66.0549 47.5832C65.7845 47.8941 65.5158 48.2025 65.2472 48.5092C64.7246 49.135 64.1649 49.7129 63.606 50.2743C63.0662 50.8539 62.4874 51.3764 61.9236 51.8898C61.6433 52.1494 61.3672 52.4065 61.0944 52.6603C60.8066 52.8984 60.5231 53.1332 60.2428 53.3655C59.144 54.3213 58.0064 55.1034 56.9829 55.8599C56.4497 56.2079 55.9379 56.5411 55.4518 56.8586C54.9731 57.1901 54.5051 57.4795 54.0562 57.7324C53.1592 58.2459 52.4101 58.7345 51.7239 59.0619C50.3887 59.7605 49.6256 60.1598 49.6256 60.1598C49.4123 60.2714 49.3305 60.5352 49.4413 60.7485C49.5512 60.9527 49.7992 61.0362 50.0076 60.9444Z" fill="#323232"/>
<path d="M46.7708 145.341C46.7708 145.341 46.6658 146.026 46.5343 147.24C46.3996 148.453 46.2045 150.184 46.0466 152.265C45.9523 153.305 45.8862 154.433 45.8085 155.626C45.7307 156.819 45.6431 158.079 45.5951 159.383C45.5546 160.687 45.5133 162.034 45.472 163.404C45.4281 164.773 45.3761 166.165 45.3942 167.557C45.4033 168.949 45.4124 170.341 45.4207 171.712C45.4132 173.082 45.4695 174.43 45.5166 175.735C45.5554 177.039 45.6307 178.3 45.6836 179.495C45.7332 180.689 45.7969 181.819 45.8977 182.86C46.0912 184.94 46.2532 186.672 46.3657 187.885C46.4913 189.097 46.5633 189.789 46.5633 189.789C46.5881 190.028 46.8022 190.202 47.042 190.177C47.2685 190.154 47.438 189.958 47.433 189.734L47.4322 189.715C47.4322 189.715 47.4148 189.022 47.3826 187.809C47.3379 186.597 47.2751 184.867 47.199 182.792C47.137 181.756 47.1155 180.631 47.1131 179.44C47.0957 178.25 47.0973 176.995 47.0601 175.699C47.0287 174.403 46.989 173.063 47.0138 171.699C47.0221 170.337 47.0312 168.953 47.0386 167.568C47.0163 164.8 47.1172 162.032 47.147 159.436C47.185 158.139 47.2214 156.884 47.2569 155.695C47.2867 154.505 47.309 153.378 47.3603 152.342C47.4413 150.266 47.5091 148.536 47.5554 147.327C47.6083 146.114 47.6381 145.42 47.6381 145.42C47.648 145.179 47.4611 144.976 47.2205 144.965C46.9973 144.955 46.8047 145.117 46.7708 145.332V145.341Z" fill="#683353"/>
<path d="M63.0093 126.245C63.0093 126.245 63.6153 127.247 64.724 128.615C65.0043 128.954 65.3151 129.319 65.6656 129.69C66.0187 130.062 66.3982 130.446 66.9025 130.78C67.0281 130.864 67.167 130.943 67.3299 131.01C67.4994 131.071 67.6656 131.147 67.9715 131.099C68.217 131.054 68.5816 130.948 68.8561 130.811C69.4249 130.547 69.9309 130.195 70.3881 129.801C71.3008 129.01 72.0713 128.109 72.7551 127.245C73.4297 126.371 73.9853 125.508 74.454 124.767C74.9212 124.024 75.2618 123.376 75.5073 122.928C75.7455 122.476 75.8678 122.21 75.8678 122.21C75.8926 122.158 75.8703 122.095 75.8174 122.07C75.7703 122.048 75.7148 122.065 75.6867 122.106C75.6867 122.106 75.0377 123.07 74.0068 124.464C73.5 125.167 72.8733 125.96 72.1854 126.787C71.5001 127.612 70.7262 128.463 69.8623 129.174C69.4307 129.525 68.9826 129.854 68.513 130.072C68.2757 130.192 68.0913 130.244 67.7896 130.316C67.7879 130.334 67.4969 130.253 67.3159 130.125C66.905 129.866 66.5147 129.522 66.1559 129.196C65.7971 128.865 65.4714 128.531 65.1754 128.218C64.5901 127.584 64.0907 127.059 63.7608 126.675C63.4235 126.296 63.23 126.079 63.23 126.079C63.1788 126.022 63.0911 126.016 63.0341 126.067C62.9837 126.112 62.9754 126.19 63.0093 126.245Z" fill="#BCCED1"/>
<path d="M109.193 139.858C109.193 139.858 109.202 139.908 109.216 140.002C109.235 140.099 109.246 140.231 109.301 140.433C109.35 140.631 109.411 140.874 109.483 141.16C109.555 141.422 109.64 141.723 109.735 142.06C110.129 143.4 110.673 145.313 111.372 147.591C112.072 149.866 112.831 152.544 113.641 155.396C114.039 156.823 114.438 158.304 114.793 159.812C115.165 161.319 115.455 162.859 115.704 164.385C115.775 165.135 115.902 165.913 115.854 166.601L115.852 166.866C115.854 166.896 115.848 166.987 115.855 166.966L115.834 167.114L115.746 167.699C115.682 168.083 115.641 168.489 115.558 168.852C115.248 170.286 114.822 171.738 114.274 173.079C114.014 173.757 113.699 174.401 113.423 175.044C113.1 175.668 112.823 176.297 112.482 176.875C111.847 178.056 111.158 179.126 110.503 180.1C109.838 181.069 109.204 181.942 108.618 182.7C108.028 183.455 107.498 184.1 107.046 184.62C106.148 185.664 105.604 186.231 105.604 186.231C105.437 186.404 105.443 186.68 105.617 186.847C105.781 187.004 106.038 187.008 106.205 186.861L106.215 186.852C106.215 186.852 106.82 186.319 107.8 185.308C108.29 184.803 108.868 184.173 109.512 183.433C110.152 182.69 110.86 181.834 111.569 180.853C112.277 179.87 113.025 178.789 113.725 177.584C114.436 176.386 115.127 175.079 115.705 173.661C116.298 172.246 116.768 170.741 117.131 169.117C117.223 168.717 117.265 168.339 117.334 167.947L117.429 167.362L117.452 167.216C117.464 167.096 117.458 167.09 117.462 167.02L117.472 166.692C117.535 165.792 117.406 164.991 117.336 164.159C117.085 162.545 116.745 160.964 116.355 159.433C115.976 157.898 115.556 156.408 115.136 154.968C114.722 153.519 114.284 152.156 113.855 150.849C113.42 149.55 113.009 148.322 112.629 147.189C111.866 144.925 111.166 143.062 110.716 141.75C110.496 141.12 110.324 140.624 110.207 140.286C110.146 140.133 110.121 139.98 110.095 139.89C110.073 139.797 110.06 139.748 110.06 139.748L110.046 139.688C109.989 139.454 109.755 139.311 109.521 139.368C109.297 139.421 109.158 139.636 109.193 139.858Z" fill="#683353"/>
<path d="M149.149 88.1095C149.149 88.1095 148.548 87.9036 147.65 87.8457C147.198 87.8077 146.668 87.811 146.1 87.8647C145.817 87.8945 145.523 87.9309 145.228 87.9888C144.936 88.0607 144.632 88.1029 144.341 88.2045C143.754 88.3839 143.174 88.6022 142.668 88.8916C142.407 89.0172 142.172 89.1743 141.955 89.3298C141.733 89.4769 141.531 89.6257 141.361 89.787C141.003 90.0846 140.746 90.3723 140.582 90.5881C140.412 90.7972 140.322 90.9196 140.322 90.9196C140.178 91.1164 140.221 91.3917 140.418 91.5355C140.563 91.6414 140.751 91.6463 140.898 91.562L140.934 91.5413C140.934 91.5413 141.055 91.4719 141.263 91.3512C141.363 91.2883 141.485 91.2123 141.624 91.1246C141.767 91.0477 141.93 90.9601 142.107 90.8659C142.276 90.7617 142.478 90.679 142.682 90.5798C142.882 90.474 143.104 90.3855 143.335 90.2946C143.559 90.1921 143.8 90.1094 144.048 90.0284C144.289 89.9316 144.545 89.863 144.8 89.7903C145.308 89.6348 145.831 89.5257 146.325 89.4174C146.821 89.3231 147.289 89.238 147.694 89.1751C148.51 89.0569 149.054 88.9784 149.054 88.9784L149.065 88.9767C149.31 88.9412 149.479 88.7147 149.444 88.4708C149.421 88.2971 149.301 88.1624 149.149 88.1095Z" fill="#B97777" fill-opacity="0.21"/>
<path d="M48.4558 83.3329L48.4641 83.3494L48.436 83.2502C48.6691 84.3787 49.0568 85.3675 49.519 86.3481C49.7621 86.8276 49.9828 87.3212 50.2449 87.7891L51.0774 89.1648C51.3412 89.6336 51.652 90.0685 51.972 90.4967L52.9153 91.7947C53.5478 92.657 54.2852 93.4276 54.9673 94.2494C55.6411 95.0827 56.4455 95.7822 57.1913 96.5419C57.942 97.2827 58.71 98.0615 59.5111 98.7345L60.6827 99.7729C61.0547 100.132 61.4904 100.48 61.8104 100.849C62.4891 101.56 63.1538 102.344 63.7284 103.18C66.0574 106.513 67.5348 110.467 68.0507 114.511C68.178 115.522 68.2466 116.537 68.2169 117.542L68.2069 117.919L68.2036 118.07L68.1846 118.267L68.1044 119.051C68.0879 119.327 68.0259 119.539 67.9829 119.773C67.9267 120 67.9118 120.239 67.8258 120.457L67.6067 121.121L67.3083 121.699L67.2719 121.772L67.2628 121.79C67.2545 121.803 67.305 121.731 67.2769 121.771L67.2471 121.81L67.128 121.968L66.8916 122.285L66.4179 122.916C66.1103 123.37 65.7639 123.674 65.4357 124.027C65.1248 124.39 64.7404 124.696 64.3609 125.005C64.0004 125.34 63.5622 125.563 63.1604 125.84C62.8124 126.036 62.2122 126.322 61.836 126.505C61.349 126.722 60.8794 126.902 60.3387 127.18C59.8113 127.453 59.1738 127.944 58.877 128.645C58.8142 128.814 58.7373 128.99 58.6984 129.157L58.6224 129.648C58.5835 129.905 58.5621 130.169 58.5306 130.429C58.4463 130.936 58.3769 131.335 58.2099 131.811C58.0858 132.279 57.861 132.706 57.6716 133.146C57.4153 133.547 57.2062 133.985 56.8845 134.335C56.3323 135.104 55.5245 135.685 54.7623 136.15C54.2646 136.41 53.876 136.568 53.4229 136.711C52.9649 136.858 52.4887 136.953 52.0075 137.029C51.0419 137.178 50.039 137.149 49.0411 137.064L48.3301 136.987C48.0829 136.935 47.7812 136.895 47.6059 136.824C47.2082 136.724 46.7593 136.497 46.3591 136.275C44.7395 135.277 43.4969 133.595 42.4147 131.853C41.325 130.098 40.3768 128.222 39.3227 126.378C38.2553 124.552 37.1351 122.675 35.4493 121.188C35.222 121.009 35.0326 120.838 34.7615 120.667C34.5349 120.526 34.3365 120.381 34.0504 120.25C33.7859 120.108 33.5155 119.994 33.2394 119.914C32.9707 119.806 32.6805 119.767 32.3969 119.709C31.2444 119.516 30.0845 119.761 29.0651 120.172C28.8419 120.262 28.7344 120.518 28.8245 120.741C28.913 120.959 29.1635 121.066 29.3834 120.985C30.3168 120.639 31.3064 120.472 32.2374 120.661C32.6937 120.753 33.1699 120.905 33.5577 121.134C33.7536 121.218 33.9802 121.389 34.1959 121.532C34.3679 121.644 34.5696 121.831 34.7507 121.981C36.2041 123.336 37.2483 125.159 38.2363 126.984C39.2284 128.818 40.1593 130.716 41.2573 132.56C42.361 134.381 43.6267 136.246 45.5961 137.52C46.1103 137.814 46.5997 138.086 47.2215 138.26C47.5422 138.372 47.7663 138.396 48.0333 138.458C48.3797 138.515 48.5988 138.531 48.8882 138.57C49.9812 138.687 51.1014 138.72 52.22 138.557C52.7789 138.474 53.337 138.363 53.8834 138.192C54.4365 138.028 55.0219 137.775 55.4559 137.548C55.7585 137.396 55.9569 137.233 56.2124 137.074C56.4464 136.904 56.7109 136.773 56.9135 136.562C57.3442 136.174 57.7808 135.788 58.1206 135.318C58.5108 134.885 58.7729 134.37 59.0771 133.883C59.3119 133.361 59.5748 132.85 59.7294 132.299C59.9179 131.784 60.0403 131.142 60.1246 130.612C60.1577 130.349 60.18 130.09 60.2213 129.825L60.2635 129.536C60.2842 129.449 60.3255 129.384 60.3495 129.305C60.4718 129.031 60.7 128.829 61.0977 128.614C61.4937 128.411 62.0063 128.211 62.4825 128.002C63.0546 127.73 63.4101 127.57 63.9814 127.258C64.451 126.947 64.957 126.682 65.377 126.303C65.8151 125.95 66.2591 125.603 66.637 125.164C67.0239 124.748 67.4521 124.329 67.7324 123.905L68.202 123.272L68.4368 122.953L68.555 122.796L68.5839 122.757C68.5649 122.782 68.6261 122.697 68.6261 122.697L68.6402 122.672L68.6947 122.568C68.8378 122.295 68.9907 122.019 69.1156 121.741L69.3892 120.906C69.4901 120.63 69.5149 120.337 69.5794 120.052C69.6314 119.77 69.7001 119.47 69.7133 119.217L69.7877 118.433L69.8059 118.236C69.8167 118.094 69.8117 118.078 69.815 117.992L69.8233 117.58C69.8489 116.479 69.7687 115.391 69.6265 114.314C69.037 110.021 67.5042 105.845 64.9338 102.319C64.2997 101.433 63.587 100.615 62.7975 99.82C62.4131 99.405 62.0137 99.1032 61.6219 98.7378L60.4131 97.7027C59.5897 97.0339 58.8696 96.322 58.1082 95.5986C57.3682 94.8686 56.5638 94.1973 55.8982 93.3995C55.2137 92.6231 54.4663 91.8915 53.8289 91.0754L52.8781 89.8469C52.554 89.441 52.2399 89.0292 51.9728 88.5877L51.1287 87.2873C50.8633 86.8458 50.6401 86.3828 50.3929 85.9314C49.9249 85.0286 49.5231 84.0464 49.2983 83.1212L49.2809 83.051L49.2693 83.0212L49.2611 83.0047L49.2371 82.9567C49.1279 82.7426 48.8667 82.6574 48.6526 82.7657C48.4426 82.8674 48.3574 83.1213 48.4558 83.3329Z" fill="#323232"/>
<path d="M77.3219 183.284C77.3219 183.284 77.2781 183.761 77.2624 184.473C77.2401 185.186 77.2616 186.134 77.2938 187.082C77.3228 187.554 77.3517 188.028 77.379 188.472C77.4096 188.916 77.46 189.33 77.4923 189.684C77.5708 190.392 77.651 190.864 77.651 190.864C77.6717 190.984 77.7858 191.063 77.9057 191.043C78.0057 191.026 78.0793 190.943 78.0875 190.845C78.0875 190.845 78.1272 190.369 78.1438 189.656C78.1446 189.3 78.1595 188.884 78.1512 188.439C78.1396 187.994 78.128 187.521 78.1156 187.046C78.066 186.099 78.0048 185.152 77.9205 184.444C77.8428 183.736 77.7585 183.264 77.7585 183.264C77.737 183.145 77.6221 183.066 77.5022 183.088C77.403 183.107 77.331 183.188 77.3219 183.284Z" fill="#683353"/>
<path d="M88.8237 109.253C88.827 109.24 88.9378 109.33 89.1503 109.478C89.3578 109.637 89.6331 109.893 89.9291 110.269C90.0754 110.456 90.2069 110.688 90.3524 110.932C90.4574 111.2 90.6236 111.464 90.6996 111.789C90.803 112.103 90.8956 112.441 90.9444 112.811C91.027 113.172 91.0502 113.563 91.0808 113.969C91.1031 114.183 91.1105 114.362 91.094 114.583C91.0841 114.798 91.0849 115.023 91.0452 115.232C90.9964 115.655 90.9129 116.099 90.8104 116.56C90.6004 117.468 90.3375 118.441 90.0267 119.419C89.4091 121.382 88.5947 123.438 87.658 125.421C87.195 126.413 86.6899 127.389 86.1078 128.27C85.8077 128.684 85.4944 129.136 85.1447 129.386C85.1017 129.424 85.0653 129.424 85.0273 129.448C85.0107 129.461 84.9091 129.502 84.9644 129.497L84.5693 129.547C84.3551 129.514 84.2063 129.517 83.9649 129.425C83.0811 129.127 82.2552 128.547 81.5334 127.965C80.8067 127.378 80.1577 126.763 79.5732 126.183C78.4108 125.011 77.4782 123.989 76.8499 123.253C76.2215 122.515 75.8627 122.095 75.8627 122.095C75.8255 122.05 75.7594 122.044 75.7147 122.081C75.6734 122.116 75.6659 122.177 75.6957 122.222C75.6957 122.222 75.7759 122.335 75.9255 122.547C76.0785 122.755 76.2885 123.08 76.587 123.464C77.1773 124.237 78.0189 125.349 79.1557 126.582C79.7286 127.195 80.366 127.846 81.0977 128.486C81.8377 129.11 82.6404 129.785 83.7342 130.156C83.9773 130.261 84.3609 130.303 84.6668 130.313L85.062 130.268C85.243 130.226 85.2555 130.193 85.3596 130.152C85.4373 130.111 85.5349 130.073 85.5928 130.024C86.1194 129.64 86.4187 129.173 86.7643 128.715C87.3943 127.779 87.9176 126.783 88.4012 125.771C89.3421 123.734 90.1019 121.632 90.6947 119.619C91.0031 118.611 91.2205 117.631 91.385 116.671C91.4652 116.196 91.5297 115.725 91.5578 115.254C91.5868 115.018 91.5735 114.802 91.5727 114.584C91.5793 114.373 91.5586 114.128 91.5247 113.93C91.4702 113.508 91.428 113.104 91.3172 112.73C91.2354 112.35 91.1097 112.004 90.9749 111.684C90.8683 111.356 90.6715 111.086 90.5409 110.821C90.3681 110.577 90.2127 110.351 90.0457 110.169C89.7141 109.804 89.3909 109.576 89.1718 109.441C88.9453 109.319 88.8262 109.24 88.8237 109.253Z" fill="#BCCED1"/>
<path d="M68.0847 89.9912C68.4402 89.9912 68.7684 89.7605 68.8759 89.4025C69.0082 88.9652 68.7602 88.5047 68.3236 88.3724C68.1533 88.3211 51.2313 83.2019 45.759 80.0751C44.4784 79.3434 42.9836 75.0501 42.3313 72.235C42.2279 71.7902 41.7823 71.5157 41.3392 71.6166C40.8944 71.7191 40.6175 72.1639 40.72 72.6087C41.0102 73.8579 42.5752 80.1594 44.9397 81.5103C50.574 84.7305 67.1438 89.7431 67.8466 89.9548C67.9259 89.9788 68.0062 89.9912 68.0847 89.9912Z" fill="#595757"/>
<path d="M65.5986 88.3287C65.8408 87.3242 67.0843 86.208 70.3359 86.8843C73.0691 87.4531 74.9682 88.2361 74.9773 90.0045C74.9872 91.8763 72.6119 92.5468 69.9647 92.0424C65.9599 91.2793 65.2083 89.9491 65.5986 88.3287Z" fill="#2A2927"/>
<path d="M91.9654 48.0285C92.0539 46.9662 94.5416 45.4764 98.4786 46.571C102.182 47.5995 105.365 51.6605 104.936 52.679C104.43 53.8803 103.021 52.1747 98.9416 50.8701C95.8934 49.8954 91.7505 50.565 91.9654 48.0285Z" fill="#411D14"/>
<path d="M74.9881 48.4292C74.6582 47.4156 71.8944 46.5376 68.3146 48.5069C64.9472 50.358 62.7819 55.0424 63.4342 55.9345C64.2023 56.9877 65.182 55.0035 68.8528 52.7978C71.5935 51.1492 75.7793 50.8483 74.9881 48.4292Z" fill="#411D14"/>
<path opacity="0.3" d="M90.5161 64.2693C90.1457 62.9523 87.2901 60.8912 84.2675 61.6973C80.5777 62.6819 80.2032 66.0022 80.2768 66.8231C80.4041 68.2427 82.6206 70.0276 86.7288 69.2546C90.9064 68.4684 90.8187 65.3499 90.5161 64.2693Z" fill="#CB8191"/>
<path d="M83.9212 69.197C84.127 68.9043 81.4302 67.0615 80.9159 67.7477C80.4786 68.3306 83.5128 69.7774 83.9212 69.197Z" fill="#4A362C"/>
<path d="M86.9759 69.1818C86.9759 69.1818 87.1718 69.2058 87.5 69.1867C87.8282 69.1652 88.3036 69.1074 88.8526 68.899C89.3974 68.699 90.0448 68.341 90.5681 67.6953C90.8236 67.3728 91.0377 66.9801 91.1609 66.5527C91.2849 66.1261 91.3246 65.6755 91.2874 65.2497C91.256 64.8347 91.1642 64.3998 90.9732 63.9798C90.7823 63.5838 90.5309 63.2457 90.2655 62.9613C89.7207 62.4016 89.1205 62.0626 88.5996 61.8394C88.0763 61.6145 87.6224 61.5078 87.3033 61.45C86.9816 61.3962 86.7899 61.3888 86.7899 61.3888C86.67 61.3847 86.5683 61.4789 86.5641 61.5996C86.5617 61.6773 86.5997 61.746 86.6584 61.7873L86.6691 61.7939C86.6691 61.7939 86.8114 61.8906 87.0602 62.0593C87.3082 62.2304 87.6563 62.4768 88.0366 62.7877C88.412 63.101 88.827 63.4797 89.1353 63.9211C89.2924 64.1378 89.4189 64.3701 89.4999 64.6073C89.5826 64.8223 89.6231 65.0827 89.6438 65.3638C89.6802 65.9095 89.5669 66.3807 89.3172 66.8024C89.0725 67.229 88.6856 67.5919 88.3119 67.8821C87.9316 68.1649 87.5719 68.3864 87.314 68.5353C87.0536 68.6816 86.904 68.7651 86.904 68.7651L86.8957 68.7692C86.789 68.8288 86.751 68.9635 86.8105 69.0702C86.8452 69.1338 86.9089 69.1735 86.9759 69.1818Z" fill="#B97777"/>
<path d="M73.7422 64.7637C73.858 66.8612 72.5104 68.6412 70.7361 68.7396C68.9636 68.8372 67.4291 67.2134 67.315 65.1168C67.2009 63.0185 68.5461 61.2385 70.3203 61.1409C72.0961 61.0433 73.6281 62.6671 73.7422 64.7637Z" fill="black"/>
<path d="M69.9772 62.1214C69.9772 62.1214 68.6833 62.2164 67.6201 61.8891C65.7194 61.3029 65.2358 60.491 64.9117 60.8201C64.5884 61.1483 66.3717 64.3933 69.3612 64.6173C69.3612 64.6173 70.2699 62.7671 69.9772 62.1214Z" fill="black"/>
<path d="M95.7553 62.9942C95.7801 65.0941 97.2418 66.7815 99.0185 66.76C100.797 66.7394 102.22 65.0189 102.195 62.9165C102.172 60.8165 100.708 59.1291 98.9283 59.1506C97.1492 59.1721 95.7305 60.8926 95.7553 62.9942Z" fill="black"/>
<path d="M99.3384 60.1045C99.3384 60.1045 100.635 60.1119 101.673 59.7142C103.532 59.0024 103.962 58.1616 104.308 58.4667C104.65 58.7734 103.089 62.13 100.121 62.5516C100.121 62.5516 99.0904 60.7667 99.3384 60.1045Z" fill="black"/>
<path opacity="0.5" d="M96.0463 74.7103C96.0463 70.6005 99.3773 67.2695 103.487 67.2695C107.598 67.2695 110.929 70.6014 110.929 74.7103C110.929 78.8201 107.598 82.1519 103.487 82.1519C99.3781 82.1511 96.0463 78.8193 96.0463 74.7103Z" fill="#E18192"/>
<path opacity="0.5" d="M56.3621 75.8119C56.3621 71.7021 59.6931 68.3711 63.8029 68.3711C67.9135 68.3711 71.2445 71.7029 71.2445 75.8119C71.2445 79.9217 67.9135 83.2527 63.8029 83.2527C59.6939 83.2535 56.3621 79.9217 56.3621 75.8119Z" fill="#E18192"/>
<path d="M68.9742 74.5294C68.9742 74.5294 72.8252 79.0427 84.6139 78.5458C93.6115 78.1688 96.7821 76.6351 97.3732 76.2681C97.9643 75.901 98.042 72.3931 98.042 72.3931L98.1454 72.1798L98.1446 72.1715C95.7222 71.0174 92.6996 73.892 86.6733 74.3715C77.4666 75.1098 71.4512 70.0062 68.9742 74.5294Z" fill="#FFFEF8"/>
<path d="M95.4643 84.5841C85.3514 78.8166 76.291 84.1847 74.7847 85.1694C77.9611 86.875 82.2296 87.8919 87.3629 87.4579C90.9312 87.1602 93.6016 86.1127 95.5536 84.7023L95.4643 84.5841Z" fill="#FC839A"/>
<path d="M98.0413 72.3941C98.0413 72.3941 97.9636 75.902 97.3724 76.2691C96.7813 76.6362 93.6107 78.169 84.6131 78.5468C72.8244 79.0437 68.9734 74.5305 68.9734 74.5305C67.2654 77.6481 69.176 82.8418 74.7839 85.1708C76.2894 84.1853 85.3498 78.818 95.4635 84.5854L95.5528 84.7037C100.72 80.9634 100.803 74.671 99.1326 72.9175C98.8135 72.5801 98.4844 72.3354 98.1438 72.1816L98.0413 72.3941Z" fill="black"/>
<path d="M54.1664 17.5143C56.1101 16.1584 58.1108 15.0671 60.1364 14.1907C74.0829 8.11406 89.0306 12.3388 93.0652 13.6946C87.4937 12.5537 82.9705 12.9175 80.7474 13.2399C78.9864 13.2482 61.6816 13.6698 51.4141 26.8814C43.9982 36.4221 42.2959 49.8651 42.0305 58.2898C42.0222 58.5709 42.0131 58.8437 42.0057 59.1083C41.9643 60.8362 41.99 62.3161 42.0305 63.4652C42.0222 63.4652 42.0131 63.4652 42.0057 63.4652C41.436 63.4652 40.8821 63.5727 40.3522 63.7794C39.5916 63.8952 38.8723 64.2176 38.2282 64.6971C38.1373 63.7215 38.0381 62.4318 37.9711 60.894C37.5156 50.3943 38.6077 28.3373 54.1664 17.5143Z" fill="#6D6B6B"/>
<path d="M118.912 194.617C118.912 194.617 116.013 186.644 94.9932 186.644C73.9733 186.644 31.2086 191.476 4.39015 159.101C-0.297287 153.442 -3.20673 185.476 26.8597 195.342C57.785 205.489 67.4498 191.476 118.912 194.617Z" fill="white"/>
<path d="M3.67322 100.5C5.33162 101.604 11.5028 86.6125 12.6342 69.98C13.749 53.5874 9.24132 37.8022 5.65923 37.1085C-1.3933 35.7422 1.23419 47.4314 5.11924 63.5986C7.60974 73.9636 0.905121 98.657 3.67322 100.5Z" fill="white"/>
<path d="M2.88898 105.289C5.45776 106.572 2.92667 111.227 1.2574 110.86C-0.411147 110.492 -0.911271 103.39 2.88898 105.289Z" fill="white"/>
</svg>
