<svg width="677" height="618" viewBox="0 0 677 618" fill="none" xmlns="http://www.w3.org/2000/svg">
<path d="M553.649 350.053C553.649 350.053 553.649 344.39 545.722 336.463C537.794 328.535 532.697 324.006 532.697 324.006C532.697 324.006 528.734 337.029 536.095 344.956C543.455 352.884 553.648 360.244 553.648 360.244L553.649 350.053Z" fill="#75375C"/>
<path d="M542.144 385.416C542.144 385.416 542.144 379.754 534.217 371.826C526.289 363.898 521.194 359.369 521.194 359.369C521.194 359.369 517.231 372.392 524.591 380.32C531.953 388.247 542.144 395.608 542.144 395.608V385.416Z" fill="#75375C"/>
<path d="M553.151 359.698C553.151 359.698 553.749 354.068 562.471 347.022C571.192 339.977 576.738 336.01 576.738 336.01C576.738 336.01 579.303 349.379 571.146 356.484C562.988 363.588 552.075 369.831 552.075 369.831L553.151 359.698Z" fill="#75375C"/>
<path d="M539.252 401.46C539.252 401.46 540.438 395.923 549.851 389.833C559.264 383.743 565.196 380.381 565.196 380.381C565.196 380.381 566.343 393.945 557.485 400.155C548.626 406.364 537.118 411.425 537.118 411.425L539.252 401.46Z" fill="#75375C"/>
<path d="M541.865 446.994C541.865 446.994 541.865 441.332 549.793 433.404C557.721 425.476 562.817 420.947 562.817 420.947C562.817 420.947 566.78 433.97 559.42 441.898C552.06 449.825 541.867 457.186 541.867 457.186L541.865 446.994Z" fill="#75375C"/>
<path d="M541.733 458.108C541.733 458.108 542.537 452.502 535.817 443.529C529.097 434.556 524.695 429.348 524.695 429.348C524.695 429.348 518.922 441.676 525.081 450.569C531.241 459.462 540.284 468.197 540.284 468.197L541.733 458.108Z" fill="#75375C"/>
<path d="M533.916 491.046C533.916 491.046 533.916 485.383 541.844 477.457C549.771 469.529 554.867 465 554.867 465C554.867 465 558.83 478.023 551.469 485.95C544.109 493.878 533.916 501.238 533.916 501.238V491.046Z" fill="#75375C"/>
<path d="M539.21 520.909C539.21 520.909 537.776 515.431 543.437 505.755C549.098 496.078 552.882 490.406 552.882 490.406C552.882 490.406 560.014 502.002 554.9 511.534C549.788 521.068 541.791 530.77 541.791 530.77L539.21 520.909Z" fill="#75375C"/>
<path d="M554.367 348.602C553.902 354.654 553.215 360.916 552.196 366.183C549.062 382.373 541.229 392.819 538.095 407.442C534.961 422.066 543.957 440.905 541.549 459.689C539.14 478.472 531.828 488.918 533.917 501.452C536.007 513.986 546.974 547.935 546.974 547.935" stroke="#263238" stroke-width="0.5" stroke-miterlimit="10" stroke-linecap="round" stroke-linejoin="round"/>
<path d="M553.072 363.46L561.616 356.904" stroke="#263238" stroke-width="0.5" stroke-miterlimit="10" stroke-linecap="round" stroke-linejoin="round"/>
<path d="M553.471 355.91L549.895 349.553" stroke="#263238" stroke-width="0.5" stroke-miterlimit="10" stroke-linecap="round" stroke-linejoin="round"/>
<path d="M538.57 406.773C538.57 406.773 545.723 401.408 553.072 396.045" stroke="#263238" stroke-width="0.5" stroke-miterlimit="10" stroke-linecap="round" stroke-linejoin="round"/>
<path d="M542.144 395.608C542.144 395.608 536.185 383.925 529.43 376.176" stroke="#263238" stroke-width="0.5" stroke-miterlimit="10" stroke-linecap="round" stroke-linejoin="round"/>
<path d="M542.146 455.049C542.146 455.049 547.709 444.122 557.443 434.586" stroke="#263238" stroke-width="0.5" stroke-miterlimit="10" stroke-linecap="round" stroke-linejoin="round"/>
<path d="M540.755 462.996C540.755 462.996 537.179 454.453 533.008 448.294C528.834 442.135 528.239 441.34 528.239 441.34" stroke="#263238" stroke-width="0.5" stroke-miterlimit="10" stroke-linecap="round" stroke-linejoin="round"/>
<path d="M533.916 501.452C533.916 501.452 536.781 494.188 540.357 488.427C543.933 482.666 548.702 477.5 548.702 477.5" stroke="#263238" stroke-width="0.5" stroke-miterlimit="10" stroke-linecap="round" stroke-linejoin="round"/>
<path d="M541.791 530.769C541.791 530.769 540.954 523.988 543.934 518.227C546.914 512.466 550.291 504.916 551.682 501.936" stroke="#263238" stroke-width="0.5" stroke-miterlimit="10" stroke-linecap="round" stroke-linejoin="round"/>
<path d="M501.738 425.7C501.738 425.7 501.123 422.15 505.234 416.318C509.345 410.486 512.049 407.092 512.049 407.092C512.049 407.092 515.948 414.829 512.192 420.598C508.436 426.369 502.844 432.091 502.844 432.091L501.738 425.7Z" fill="#75375C"/>
<path d="M512.792 446.625C512.792 446.625 512.178 443.075 516.288 437.242C520.399 431.41 523.103 428.016 523.103 428.016C523.103 428.016 527.003 435.752 523.247 441.522C519.491 447.293 513.898 453.015 513.898 453.015L512.792 446.625Z" fill="#75375C"/>
<path d="M503.098 431.693C503.098 431.693 502.112 428.227 495.878 424.755C489.644 421.283 485.737 419.398 485.737 419.398C485.737 419.398 485.58 428.06 491.465 431.631C497.353 435.201 504.873 437.931 504.873 437.931L503.098 431.693Z" fill="#75375C"/>
<path d="M516.347 456.374C516.347 456.374 515.002 453.031 508.438 450.234C501.874 447.436 497.79 445.973 497.79 445.973C497.79 445.973 498.543 454.603 504.773 457.536C511.001 460.467 518.767 462.393 518.767 462.393L516.347 456.374Z" fill="#75375C"/>
<path d="M519.652 485.209C519.652 485.209 519.037 481.659 513.205 477.548C507.374 473.437 503.687 471.15 503.687 471.15C503.687 471.15 502.614 479.747 508.091 483.919C513.568 488.09 520.758 491.6 520.758 491.6L519.652 485.209Z" fill="#75375C"/>
<path d="M520.941 492.165C520.941 492.165 519.828 488.738 523.068 482.381C526.308 476.024 528.501 472.281 528.501 472.281C528.501 472.281 533.461 479.384 530.564 485.63C527.666 491.875 522.943 498.335 522.943 498.335L520.941 492.165Z" fill="#75375C"/>
<path d="M530.891 520.806C530.891 520.806 531.303 517.226 536.889 512.789C542.477 508.353 546.028 505.857 546.028 505.857C546.028 505.857 547.589 514.38 542.358 518.857C537.129 523.335 530.151 527.249 530.151 527.249L530.891 520.806Z" fill="#75375C"/>
<path d="M529.418 511.971C529.418 511.971 528.803 508.421 522.972 504.31C517.14 500.199 513.453 497.912 513.453 497.912C513.453 497.912 512.381 506.509 517.858 510.682C523.335 514.853 530.524 518.363 530.524 518.363L529.418 511.971Z" fill="#75375C"/>
<path d="M529.341 531.272C529.341 531.272 529.646 527.681 525.045 522.228C520.444 516.774 517.457 513.627 517.457 513.627C517.457 513.627 514.242 521.672 518.485 527.095C522.727 532.518 528.793 537.735 528.793 537.735L529.341 531.272Z" fill="#75375C"/>
<path d="M501.13 424.867C502.078 428.612 503.19 432.465 504.4 435.656C508.122 445.468 514.169 451.169 517.722 459.998C521.275 468.828 517.679 481.619 521.228 493.136C524.778 504.653 530.496 510.409 530.547 518.496C530.597 526.584 527.406 549.061 527.406 549.061" stroke="#263238" stroke-width="0.5" stroke-miterlimit="10" stroke-linecap="round" stroke-linejoin="round"/>
<path d="M503.555 434.044L497.487 430.859" stroke="#263238" stroke-width="0.5" stroke-miterlimit="10" stroke-linecap="round" stroke-linejoin="round"/>
<path d="M502.487 429.353L504.039 424.979" stroke="#263238" stroke-width="0.5" stroke-miterlimit="10" stroke-linecap="round" stroke-linejoin="round"/>
<path d="M517.351 459.63C517.351 459.63 512.283 457.042 507.092 454.477" stroke="#263238" stroke-width="0.5" stroke-miterlimit="10" stroke-linecap="round" stroke-linejoin="round"/>
<path d="M513.898 453.017C513.898 453.017 516.367 445.043 519.761 439.451" stroke="#263238" stroke-width="0.5" stroke-miterlimit="10" stroke-linecap="round" stroke-linejoin="round"/>
<path d="M520.35 490.291C520.35 490.291 515.675 484.042 508.535 479.119" stroke="#263238" stroke-width="0.5" stroke-miterlimit="10" stroke-linecap="round" stroke-linejoin="round"/>
<path d="M522.085 495.124C522.085 495.124 523.4 489.379 525.348 485.064C527.296 480.749 527.583 480.186 527.583 480.186" stroke="#263238" stroke-width="0.5" stroke-miterlimit="10" stroke-linecap="round" stroke-linejoin="round"/>
<path d="M530.272 524.631C530.272 524.631 534.295 519.7 536.799 517.855C539.302 516.01 541.037 514.17 541.037 514.17" stroke="#263238" stroke-width="0.5" stroke-miterlimit="10" stroke-linecap="round" stroke-linejoin="round"/>
<path d="M530.549 518.496C530.549 518.496 527.964 514.251 525.095 511.027C522.227 507.802 518.675 505.08 518.675 505.08" stroke="#263238" stroke-width="0.5" stroke-miterlimit="10" stroke-linecap="round" stroke-linejoin="round"/>
<path d="M528.792 537.736C528.792 537.736 528.581 533.394 526.087 530.104C523.593 526.815 520.655 522.447 519.459 520.729" stroke="#263238" stroke-width="0.5" stroke-miterlimit="10" stroke-linecap="round" stroke-linejoin="round"/>
<path d="M558.95 588.121H515.33C513.055 588.121 511.212 586.276 511.212 584.003V545.141H563.069V584.003C563.068 586.278 561.224 588.121 558.95 588.121Z" fill="#263238"/>
<path d="M562.617 551.905H511.211C508.97 551.905 507.153 550.088 507.153 547.847C507.153 545.606 508.97 543.789 511.211 543.789H562.617C564.858 543.789 566.675 545.606 566.675 547.847C566.675 550.088 564.858 551.905 562.617 551.905Z" fill="#263238"/>
<path d="M463.971 190.463C489.396 190.463 510.007 169.852 510.007 144.427C510.007 119.002 489.396 98.3906 463.971 98.3906C438.546 98.3906 417.935 119.002 417.935 144.427C417.935 169.852 438.546 190.463 463.971 190.463Z" fill="#263238"/>
<path d="M478.999 181.431C499.435 173.142 509.281 149.855 500.992 129.419C492.702 108.983 469.416 99.1366 448.98 107.426C428.544 115.716 418.697 139.002 426.987 159.438C435.276 179.874 458.563 189.721 478.999 181.431Z" fill="white"/>
<path d="M438.072 151.77L463.971 144.427V108.199" stroke="#263238" stroke-width="2" stroke-miterlimit="10"/>
<path d="M240.607 350.238H190.065L123.895 172.652H174.437L240.607 350.238Z" fill="#263238"/>
<path opacity="0.2" d="M240.607 350.238H190.065L123.895 172.652H174.437L240.607 350.238Z" fill="white"/>
<path d="M160.935 216.023H147.939C146.319 216.023 144.516 214.709 143.913 213.089L138.895 199.622C138.291 198.001 139.115 196.688 140.735 196.688H153.73C155.351 196.688 157.153 198.001 157.757 199.622L162.775 213.089C163.379 214.709 162.554 216.023 160.935 216.023Z" fill="#263238"/>
<path d="M177.782 181.628H127.239L123.895 172.652H174.437L177.782 181.628Z" fill="#263238"/>
<path d="M144.508 183.098L145.96 186.992" stroke="#263238" stroke-miterlimit="10" stroke-linecap="round" stroke-linejoin="round"/>
<path d="M146.457 183.098L147.908 186.992" stroke="#263238" stroke-miterlimit="10" stroke-linecap="round" stroke-linejoin="round"/>
<path d="M148.404 183.098L149.855 186.992" stroke="#263238" stroke-miterlimit="10" stroke-linecap="round" stroke-linejoin="round"/>
<path d="M150.351 183.098L151.802 186.992" stroke="#263238" stroke-miterlimit="10" stroke-linecap="round" stroke-linejoin="round"/>
<path d="M152.299 183.098L153.751 186.992" stroke="#263238" stroke-miterlimit="10" stroke-linecap="round" stroke-linejoin="round"/>
<path d="M154.246 183.098L155.698 186.992" stroke="#263238" stroke-miterlimit="10" stroke-linecap="round" stroke-linejoin="round"/>
<path d="M156.195 183.098L157.646 186.992" stroke="#263238" stroke-miterlimit="10" stroke-linecap="round" stroke-linejoin="round"/>
<path d="M158.142 183.098L159.593 186.992" stroke="#263238" stroke-miterlimit="10" stroke-linecap="round" stroke-linejoin="round"/>
<path d="M160.089 183.098L161.54 186.992" stroke="#263238" stroke-miterlimit="10" stroke-linecap="round" stroke-linejoin="round"/>
<path d="M162.037 183.098L163.489 186.992" stroke="#263238" stroke-miterlimit="10" stroke-linecap="round" stroke-linejoin="round"/>
<path d="M156.731 207.579L144.495 199.819C144.206 199.637 143.886 199.604 143.684 199.738C143.481 199.871 143.433 200.143 143.566 200.429L149.173 212.525C149.31 212.822 149.612 213.07 149.927 213.146C149.993 213.162 150.057 213.169 150.117 213.169C150.344 213.169 150.521 213.059 150.584 212.865L151.875 208.887L156.754 208.832C157.049 208.828 157.243 208.641 157.237 208.361C157.232 208.08 157.03 207.769 156.731 207.579Z" fill="white"/>
<path d="M156.482 208.123L144.246 200.363L149.853 212.46L151.24 208.183L156.482 208.123Z" fill="#263238"/>
<path d="M179.354 208.123L167.117 200.363L172.724 212.46L174.112 208.183L179.354 208.123Z" fill="white"/>
<path d="M185.623 215.003L184.519 212.512L183.08 214.606L185.623 215.003Z" fill="white"/>
<path d="M215.195 294.367L214.092 291.877L212.651 293.972L215.195 294.367Z" fill="white"/>
<path d="M224.271 318.722L223.166 316.232L221.727 318.327L224.271 318.722Z" fill="white"/>
<path d="M233.577 343.702L232.474 341.211L231.034 343.307L233.577 343.702Z" fill="white"/>
<path d="M181.462 266.245L180.358 263.754L178.919 265.849L181.462 266.245Z" fill="white"/>
<path d="M191.94 294.367L190.837 291.877L189.398 293.972L191.94 294.367Z" fill="white"/>
<path d="M201.016 318.722L199.913 316.232L198.472 318.327L201.016 318.722Z" fill="white"/>
<path d="M210.324 343.702L209.22 341.211L207.779 343.307L210.324 343.702Z" fill="white"/>
<path d="M156.724 241.725L158.853 243.101L164.698 230.893L162.569 229.518L156.724 241.725Z" fill="white"/>
<path d="M159.348 229.777C156.254 227.359 156.036 226.877 156.795 224.141C155.193 226.333 154.726 226.372 151.326 224.593C154.42 227.011 154.636 227.492 153.879 230.23C155.481 228.037 155.948 227.998 159.348 229.777Z" fill="white"/>
<path d="M169.557 231.091C167.646 229.596 167.511 229.3 167.98 227.607C166.99 228.963 166.702 228.986 164.6 227.888C166.512 229.383 166.646 229.679 166.178 231.372C167.168 230.016 167.456 229.992 169.557 231.091Z" fill="white"/>
<path d="M168.978 236.828C167.613 235.761 167.517 235.548 167.851 234.342C167.145 235.309 166.939 235.326 165.44 234.542C166.805 235.609 166.901 235.82 166.566 237.028C167.273 236.061 167.479 236.044 168.978 236.828Z" fill="white"/>
<path d="M199.662 290.947L200.978 291.876L206.823 279.667L205.506 278.738L199.662 290.947Z" fill="white"/>
<path d="M194.761 238.578L183.964 231.73L188.911 242.404L190.137 238.63L194.761 238.578Z" fill="white"/>
<path d="M186.639 239.202C182.682 239.202 178.593 236.869 177.523 234.001C176.455 231.134 178.805 228.801 182.763 228.801C186.721 228.801 190.81 231.134 191.878 234.001C192.948 236.869 190.597 239.202 186.639 239.202ZM182.996 229.424C179.382 229.424 177.207 231.476 178.147 234.001C179.088 236.525 182.793 238.578 186.407 238.578C190.02 238.578 192.195 236.525 191.255 234.001C190.314 231.478 186.61 229.424 182.996 229.424Z" fill="white"/>
<path d="M181.883 238.162C180.908 238.162 179.819 237.368 179.455 236.393C179.092 235.418 179.589 234.625 180.564 234.625C181.539 234.625 182.629 235.418 182.992 236.393C183.356 237.368 182.858 238.162 181.883 238.162ZM180.797 235.249C180.166 235.249 179.844 235.762 180.079 236.393C180.315 237.024 181.019 237.537 181.65 237.537C182.281 237.537 182.603 237.024 182.368 236.393C182.133 235.762 181.428 235.249 180.797 235.249Z" fill="white"/>
<path d="M182.053 240.016L181.624 239.428C182.404 239.108 182.829 238.634 182.889 238.02C182.965 237.243 182.43 236.508 182.424 236.501L182.931 236.287C182.961 236.328 183.65 237.277 183.551 238.286C183.479 239.056 182.974 239.638 182.053 240.016Z" fill="white"/>
<path d="M175.285 257.622L167.75 252.133L166.151 254.681L173.686 260.17L175.285 257.622Z" fill="white"/>
<path d="M163.215 264.732L164.449 265.631L167.205 261.235C166.894 260.905 166.779 260.479 166.955 260.197C167.168 259.858 167.715 259.858 168.179 260.197C168.643 260.535 168.846 261.082 168.635 261.421C168.458 261.703 168.048 261.746 167.647 261.558L164.889 265.953L166.034 266.788L172.849 264.875L173.274 260.854L165.834 255.434L162.41 257.27L163.215 264.732Z" fill="white"/>
<path d="M156.086 247.5H199.589" stroke="#263238" stroke-miterlimit="10" stroke-linecap="round" stroke-linejoin="round"/>
<path d="M193.923 252.133L192.323 254.681L199.858 260.17L201.458 257.622L193.923 252.133Z" fill="white"/>
<path d="M188.584 257.268L189.387 264.732L190.62 265.631L193.378 261.235C193.067 260.905 192.952 260.479 193.128 260.197C193.34 259.858 193.887 259.858 194.352 260.197C194.816 260.535 195.019 261.082 194.808 261.421C194.631 261.703 194.22 261.746 193.82 261.558L191.062 265.953L192.207 266.788L199.022 264.875L199.447 260.854L192.007 255.434L188.584 257.268Z" fill="white"/>
<path d="M186.722 259.459C186.792 258.935 186.868 258.363 186.921 257.727C187.027 256.442 186.666 255.301 185.853 254.333C184.564 252.801 182.626 252.308 182.544 252.288C182.338 252.237 182.182 252.348 182.202 252.537C182.221 252.725 182.405 252.92 182.613 252.972C182.629 252.976 184.282 253.396 185.325 254.634C185.975 255.405 186.258 256.347 186.168 257.435C186.117 258.063 186.041 258.625 185.972 259.139C185.609 261.843 185.39 263.475 189.884 266.172C189.966 266.222 190.051 266.246 190.127 266.246C190.233 266.246 190.321 266.199 190.356 266.108C190.418 265.954 190.307 265.732 190.107 265.613C186.21 263.274 186.359 262.157 186.722 259.459Z" fill="white"/>
<path d="M167.464 277.562L167.728 278.269C167.82 278.517 168.642 280.709 169.087 281.457L170.353 281.148C170.149 280.805 169.74 279.816 169.414 278.977H174.788L179.284 291.047H177.27L177.796 292.462H183.241L182.714 291.047H180.699L176.203 278.977H181.432C181.716 279.741 182.158 280.93 182.376 281.518L183.792 281.522C183.455 280.61 182.583 278.269 182.583 278.269L182.319 277.562H167.464Z" fill="white"/>
<path opacity="0.44" d="M195.738 311.047C196.895 314.15 194.349 316.666 190.051 316.666C185.754 316.666 181.333 314.15 180.177 311.047C179.02 307.943 181.567 305.428 185.864 305.428C190.16 305.428 194.582 307.942 195.738 311.047Z" fill="white"/>
<path d="M195.738 311.047C196.895 314.15 194.349 316.666 190.051 316.666C185.754 316.666 181.333 314.15 180.177 311.047C179.02 307.943 181.567 305.428 185.864 305.428C190.16 305.428 194.582 307.942 195.738 311.047Z" stroke="white" stroke-miterlimit="10"/>
<path d="M211.756 311.207L216.857 301.934C217.068 301.55 217.614 301.469 218.161 301.738C218.81 302.058 219.23 302.752 219.091 303.274L216.345 313.519L211.756 311.207Z" fill="white"/>
<path d="M210.914 311.984C212.922 311.718 216.847 313.43 216.957 316.026C216.984 316.676 216.547 317.119 216.046 317.423C214.535 318.345 212.398 318.387 210.336 318.41C210.83 318.061 211.038 317.413 210.881 316.704C210.722 315.977 210.215 315.242 209.953 314.508C209.582 313.467 209.778 312.063 210.914 311.984Z" fill="white"/>
<path d="M200.288 332.335C199.695 331.041 198.946 330.239 198.435 329.801L196.896 332.256C197.493 332.757 198.36 333.666 199.03 335.127C199.628 336.433 200.17 337.363 200.564 337.957L202.074 335.551C201.579 334.858 200.932 333.742 200.288 332.335Z" fill="white"/>
<path d="M198.509 335.173C197.916 333.879 197.167 333.077 196.656 332.639L195.117 335.093C195.714 335.594 196.58 336.504 197.249 337.965C197.848 339.271 198.391 340.201 198.783 340.795L200.293 338.389C199.8 337.694 199.153 336.579 198.509 335.173Z" fill="white"/>
<path d="M200.809 332.29C201.407 333.595 201.949 334.525 202.343 335.12L204.566 331.575L199.594 327.953L198.675 329.419C199.272 329.92 200.14 330.83 200.809 332.29Z" fill="white"/>
<path d="M196.728 338.011C196.135 336.717 195.388 335.915 194.876 335.477L193.587 337.531L193.806 342.213C193.821 342.538 194.246 342.845 194.529 342.734L198.483 341.184C197.993 340.486 197.359 339.387 196.728 338.011ZM194.976 341.139L194.86 338.649L197.122 340.297L194.976 341.139Z" fill="white"/>
<path d="M216.235 334.548L214.539 337.252L223.288 343.626L224.985 340.922L225.515 341.308L229.515 334.934L219.705 327.787L215.706 334.162L216.235 334.548ZM222.713 342.081L216.085 337.253L217.297 335.321L223.926 340.149L222.713 342.081Z" fill="white"/>
<path d="M133.655 175.025L133.976 175.885L132.76 177.377L135.087 178.869L135.407 179.728L131.74 177.377L133.655 175.025Z" fill="white"/>
<path d="M130.599 175.025L130.918 175.885L129.702 177.377L132.03 178.869L132.351 179.728L128.683 177.377L130.599 175.025Z" fill="white"/>
<path d="M338.5 279.154H233.959L202.002 190.01H306.543L338.5 279.154Z" fill="#263238"/>
<path d="M331.084 274.291H237.888L209.418 194.871H302.614L331.084 274.291Z" fill="#75375C"/>
<path d="M313.362 224.858L297.949 213.512L285.778 245.118L254.219 236.203L237.888 274.291H331.084L313.362 224.858Z" fill="white"/>
<path d="M249.15 211.89C246.983 205.848 240.33 200.949 234.287 200.949C228.245 200.949 225.102 205.847 227.269 211.89C229.435 217.932 236.089 222.83 242.132 222.83C248.173 222.83 251.316 217.932 249.15 211.89Z" fill="white"/>
<path d="M349.332 263.809H244.791L212.834 174.666H317.375L349.332 263.809Z" fill="#263238"/>
<path d="M341.916 258.946H248.72L220.25 179.527H313.446L341.916 258.946Z" fill="#75375C"/>
<path d="M324.194 209.513L308.781 198.168L296.61 229.773L265.051 220.86L248.72 258.948H341.916L324.194 209.513Z" fill="white"/>
<path d="M259.982 196.546C257.815 190.504 251.162 185.605 245.119 185.605C239.077 185.605 235.934 190.504 238.101 196.546C240.267 202.589 246.921 207.486 252.964 207.486C259.005 207.486 262.148 202.589 259.982 196.546Z" fill="white"/>
<path d="M349.8 160.678L352.318 166.775H351.589C351.056 165.701 350.583 164.935 350.173 164.474C349.505 163.734 348.778 163.187 347.992 162.835C347.205 162.484 346.275 162.308 345.201 162.308H341.538L348.801 182.171C349.386 183.769 349.922 184.767 350.412 185.162C351.095 185.698 351.941 185.968 352.95 185.968H353.852L354.112 186.677H343.087L342.827 185.968H343.748C344.848 185.968 345.506 185.635 345.722 184.971C345.854 184.562 345.653 183.629 345.12 182.172L337.857 162.309H334.732C333.517 162.309 332.687 162.399 332.242 162.577C331.666 162.82 331.267 163.287 331.048 163.977C330.827 164.668 330.886 165.601 331.228 166.776H330.499L328.577 160.679L349.8 160.678Z" fill="black"/>
<path d="M365.629 172.926H373.588" stroke="#263238" stroke-width="0.5" stroke-miterlimit="10"/>
<path d="M373.326 194.005H333.299L318.474 153.465H358.501L373.326 194.005Z" stroke="#263238" stroke-width="0.5" stroke-miterlimit="10"/>
<path d="M327.599 174.425H324.6L323.503 171.426H326.502L327.599 174.425Z" fill="white" stroke="#263238" stroke-width="0.5" stroke-miterlimit="10"/>
<path d="M367.676 174.425H364.677L363.58 171.426H366.579L367.676 174.425Z" fill="white" stroke="#263238" stroke-width="0.5" stroke-miterlimit="10"/>
<path d="M320.564 155.187H317.564L316.468 152.188H319.467L320.564 155.187Z" fill="white" stroke="#263238" stroke-width="0.5" stroke-miterlimit="10"/>
<path d="M360.642 155.187H357.641L356.545 152.188H359.545L360.642 155.187Z" fill="white" stroke="#263238" stroke-width="0.5" stroke-miterlimit="10"/>
<path d="M340.618 155.187H337.619L336.522 152.188H339.521L340.618 155.187Z" fill="white" stroke="#263238" stroke-width="0.5" stroke-miterlimit="10"/>
<path d="M335.219 195.264H332.22L331.123 192.264H334.123L335.219 195.264Z" fill="white" stroke="#263238" stroke-width="0.5" stroke-miterlimit="10"/>
<path d="M375.296 195.264H372.297L371.2 192.264H374.2L375.296 195.264Z" fill="white" stroke="#263238" stroke-width="0.5" stroke-miterlimit="10"/>
<path d="M353.544 194.719L356.454 202.678" stroke="#263238" stroke-width="0.5" stroke-miterlimit="10"/>
<path d="M355.272 195.264H352.273L351.176 192.264H354.175L355.272 195.264Z" fill="white" stroke="#263238" stroke-width="0.5" stroke-miterlimit="10"/>
<path d="M358.532 204.177H355.533L354.437 201.178H357.436L358.532 204.177Z" fill="#263238"/>
<path d="M330.899 186.4H364.522" stroke="#263238" stroke-width="0.5" stroke-miterlimit="10"/>
<path d="M375.166 172.926C374.847 172.054 373.881 171.346 373.009 171.346C372.137 171.346 371.688 172.052 372.007 172.926C372.327 173.798 373.292 174.506 374.164 174.506C375.038 174.506 375.486 173.799 375.166 172.926Z" fill="#263238"/>
<path opacity="0.2" d="M189.606 387.903L225.88 418.993L191.311 588.123H193.649L232.097 422.102L267.334 451.638L217.588 587.92L220.698 587.401L273.033 454.748L418.642 587.401H507.25L403.614 384.275L189.606 387.903Z" fill="black"/>
<path d="M193.649 588.122H191.311L187.801 385.01H197.159L193.649 588.122Z" fill="#263238" stroke="#263238" stroke-miterlimit="10" stroke-linecap="round" stroke-linejoin="round"/>
<path d="M395.203 588.122H392.863L389.355 385.01H398.711L395.203 588.122Z" fill="#263238" stroke="#263238" stroke-miterlimit="10" stroke-linecap="round" stroke-linejoin="round"/>
<path d="M409.481 381.871H184.229V387.144H409.481V381.871Z" fill="white" stroke="#263238" stroke-miterlimit="10" stroke-linecap="round" stroke-linejoin="round"/>
<path d="M133.364 490.918L129.269 499.563C129.269 499.563 134.273 505.023 136.55 505.023C138.826 505.023 139.734 502.748 142.464 501.838C145.193 500.928 149.744 492.283 149.744 492.283C149.744 492.283 147.015 487.734 144.285 487.279C141.555 486.824 137.461 485.459 135.185 485.004C132.909 484.548 133.364 490.918 133.364 490.918Z" fill="white" stroke="#263238" stroke-miterlimit="10" stroke-linecap="round" stroke-linejoin="round"/>
<path d="M133.364 490.918L136.093 495.467V499.561C136.093 499.561 138.823 500.926 139.733 499.561C140.643 498.197 144.737 493.647 144.737 493.647L142.917 489.553" stroke="#263238" stroke-miterlimit="10" stroke-linecap="round" stroke-linejoin="round"/>
<path d="M136.093 499.562L131.087 498.652" stroke="#263238" stroke-miterlimit="10" stroke-linecap="round" stroke-linejoin="round"/>
<path d="M211.768 572.776L202.572 575.409C202.572 575.409 201.777 582.774 203.279 584.481C204.78 586.19 207.09 585.371 209.576 586.819C212.062 588.268 221.559 585.977 221.559 585.977C221.559 585.977 223.173 580.923 221.712 578.572C220.251 576.222 218.572 572.245 217.412 570.237C216.251 568.228 211.768 572.776 211.768 572.776Z" fill="white" stroke="#263238" stroke-miterlimit="10" stroke-linecap="round" stroke-linejoin="round"/>
<path d="M211.768 572.775L210.154 577.83L207.079 580.534C207.079 580.534 207.857 583.486 209.483 583.268C211.109 583.05 217.229 583.12 217.229 583.12L219.103 579.05" stroke="#263238" stroke-miterlimit="10" stroke-linecap="round" stroke-linejoin="round"/>
<path d="M207.079 580.534L204.458 576.174" stroke="#263238" stroke-miterlimit="10" stroke-linecap="round" stroke-linejoin="round"/>
<path d="M118.804 489.1C118.804 489.1 111.069 494.104 112.435 496.835C113.801 499.566 114.71 501.384 116.074 502.294C117.439 503.204 121.534 504.569 122.899 503.659C124.263 502.749 127.448 500.475 127.903 496.835C128.358 493.195 129.723 492.741 128.358 490.921C126.993 489.1 118.804 489.1 118.804 489.1Z" fill="white" stroke="#263238" stroke-miterlimit="10" stroke-linecap="round" stroke-linejoin="round"/>
<path d="M112.433 496.835L117.893 500.474L122.442 500.019L124.262 495.015C124.262 495.015 124.262 492.285 121.532 492.285C118.803 492.285 117.438 493.65 117.438 493.65L118.348 496.38" stroke="#263238" stroke-miterlimit="10" stroke-linecap="round" stroke-linejoin="round"/>
<path d="M152.473 482.729C152.473 482.729 145.647 489.098 146.557 493.649C147.467 498.198 156.112 501.839 156.112 501.839L166.577 495.925L163.393 487.734L156.568 484.095L152.473 482.729Z" fill="white" stroke="#263238" stroke-miterlimit="10" stroke-linecap="round" stroke-linejoin="round"/>
<path d="M146.557 493.648L153.837 496.377L162.028 493.648L158.842 486.367" stroke="#263238" stroke-miterlimit="10" stroke-linecap="round" stroke-linejoin="round"/>
<path d="M152.473 482.729L152.018 492.284L157.477 494.103" stroke="#263238" stroke-miterlimit="10" stroke-linecap="round" stroke-linejoin="round"/>
<path d="M172.946 568.266C172.946 568.266 166.121 574.635 167.032 579.186C167.942 583.735 176.587 587.376 176.587 587.376L187.052 581.462L183.868 573.271L177.044 569.632L172.946 568.266Z" fill="white" stroke="#263238" stroke-miterlimit="10" stroke-linecap="round" stroke-linejoin="round"/>
<path d="M167.032 579.185L174.311 581.915L182.502 579.185L179.317 571.906" stroke="#263238" stroke-miterlimit="10" stroke-linecap="round" stroke-linejoin="round"/>
<path d="M172.946 568.266L172.491 577.821L177.952 579.641" stroke="#263238" stroke-miterlimit="10" stroke-linecap="round" stroke-linejoin="round"/>
<path d="M127.448 475.904C127.448 475.904 120.624 482.274 121.534 486.824C122.444 491.374 131.089 495.015 131.089 495.015L141.554 489.1L138.369 480.91L131.545 477.27L127.448 475.904Z" fill="white" stroke="#263238" stroke-miterlimit="10" stroke-linecap="round" stroke-linejoin="round"/>
<path d="M121.534 486.822L128.813 489.553L137.003 486.822L133.819 479.543" stroke="#263238" stroke-miterlimit="10" stroke-linecap="round" stroke-linejoin="round"/>
<path d="M127.448 475.904L126.993 485.458L132.454 487.278" stroke="#263238" stroke-miterlimit="10" stroke-linecap="round" stroke-linejoin="round"/>
<path d="M165.624 588.123H111.628L103.53 498.617H173.724L165.624 588.123Z" fill="#263238" stroke="#263238" stroke-miterlimit="10" stroke-linecap="round" stroke-linejoin="round"/>
<path d="M129.723 573.271C129.723 573.271 121.989 578.276 123.353 581.007C124.718 583.737 125.628 585.556 126.993 586.466C128.358 587.376 132.452 588.741 133.817 587.831C135.182 586.921 138.367 584.646 138.822 581.007C139.277 577.367 140.641 576.912 139.277 575.093C137.913 573.271 129.723 573.271 129.723 573.271Z" fill="white" stroke="#263238" stroke-miterlimit="10" stroke-linecap="round" stroke-linejoin="round"/>
<path d="M123.353 581.006L128.813 584.646L133.362 584.191L135.182 579.187C135.182 579.187 135.182 576.457 132.452 576.457C129.723 576.457 128.358 577.822 128.358 577.822L129.268 580.552" stroke="#263238" stroke-miterlimit="10" stroke-linecap="round" stroke-linejoin="round"/>
<path d="M272.891 319.971C272.891 321.385 271.55 322.53 269.896 322.53C268.241 322.53 266.9 321.385 266.9 319.971C266.9 318.558 268.241 317.412 269.896 317.412C271.55 317.412 272.891 318.558 272.891 319.971Z" fill="#808080" stroke="#263238" stroke-miterlimit="10" stroke-linecap="round" stroke-linejoin="round"/>
<path d="M275.766 327.77C275.766 329.184 274.426 330.329 272.771 330.329C271.117 330.329 269.776 329.184 269.776 327.77C269.776 326.356 271.117 325.211 272.771 325.211C274.426 325.211 275.766 326.356 275.766 327.77Z" fill="#808080" stroke="#263238" stroke-miterlimit="10" stroke-linecap="round" stroke-linejoin="round"/>
<path d="M278.642 335.569C278.642 336.982 277.301 338.128 275.647 338.128C273.994 338.128 272.652 336.982 272.652 335.569C272.652 334.155 273.993 333.01 275.647 333.01C277.302 333.01 278.642 334.157 278.642 335.569Z" fill="#808080" stroke="#263238" stroke-miterlimit="10" stroke-linecap="round" stroke-linejoin="round"/>
<path d="M281.518 343.37C281.518 344.783 280.178 345.929 278.523 345.929C276.869 345.929 275.528 344.783 275.528 343.37C275.528 341.956 276.869 340.811 278.523 340.811C280.176 340.811 281.518 341.956 281.518 343.37Z" fill="#808080" stroke="#263238" stroke-miterlimit="10" stroke-linecap="round" stroke-linejoin="round"/>
<path d="M240.963 381.37H220.453L217.377 347.371H244.04L240.963 381.37Z" fill="#263238" stroke="#263238" stroke-miterlimit="10" stroke-linecap="round" stroke-linejoin="round"/>
<path d="M243.028 358.549L219.474 370.548L220.453 381.37H231.431L242.071 369.136L243.028 358.549Z" fill="#75375C" stroke="#263238" stroke-miterlimit="10" stroke-linecap="round" stroke-linejoin="round"/>
<path d="M246.414 343.307H215.003V350.698H246.414V343.307Z" fill="#75375C" stroke="#263238" stroke-miterlimit="10" stroke-linecap="round" stroke-linejoin="round"/>
<path d="M301.645 381.758H264.744C262.159 381.758 260.065 379.664 260.065 377.08C260.065 374.497 262.159 372.402 264.744 372.402H301.645C304.23 372.402 306.324 374.497 306.324 377.08C306.324 379.664 304.23 381.758 301.645 381.758Z" fill="#263238" stroke="#263238" stroke-miterlimit="10" stroke-linecap="round" stroke-linejoin="round"/>
<path d="M399.779 381.872H286.196L259.107 308.135H372.691L399.779 381.872Z" fill="#263238" stroke="#263238" stroke-miterlimit="10" stroke-linecap="round" stroke-linejoin="round"/>
<path d="M392.572 374.204H295.584L272.452 311.24H369.442L392.572 374.204Z" fill="#808080" stroke="#263238" stroke-miterlimit="10" stroke-linecap="round" stroke-linejoin="round"/>
<path d="M411.635 408.208C411.635 408.208 406.728 415.407 402.713 419.052C398.699 422.696 386.391 434.097 376.199 451.356C366.008 468.616 358.916 486.266 352.179 501.534C345.443 516.802 333.283 545.003 327.109 553.58C320.936 562.158 316.875 566.76 316.875 566.76C316.875 566.76 306.788 566.992 294.843 565.934C282.899 564.877 277.965 562.719 277.815 565.83C277.665 568.942 285.888 577.496 291.813 578.983C297.739 580.47 305.305 582.755 307.139 584.522C308.972 586.29 311.274 588.321 314.215 587.024C317.157 585.727 326.16 573.208 336.172 564.576C346.187 555.945 358.115 547.405 368.924 527.295C379.733 507.186 380.29 495.697 387.852 488.147C395.414 480.596 403.426 468.748 413.084 462.498C422.743 456.248 451.612 444.69 460.83 432.661C470.049 420.633 465.238 406.005 456.375 400.777C447.515 395.55 418.577 393.67 411.635 408.208Z" fill="#263238" stroke="#263238" stroke-miterlimit="10" stroke-linecap="round" stroke-linejoin="round"/>
<path d="M334.245 540.9C331.518 546.368 329.025 550.92 327.11 553.581C320.937 562.158 316.877 566.76 316.877 566.76C316.877 566.76 306.789 566.992 294.844 565.934C282.901 564.877 277.967 562.719 277.817 565.83C277.666 568.942 285.889 577.496 291.814 578.983C297.739 580.47 305.307 582.755 307.14 584.522C308.973 586.291 311.274 588.322 314.216 587.024C317.158 585.727 326.161 573.208 336.174 564.576C340.833 560.56 345.908 556.549 351.091 551.398C342.914 549.428 337.389 544.545 334.245 540.9Z" fill="white" stroke="#263238" stroke-miterlimit="10" stroke-linecap="round" stroke-linejoin="round"/>
<path d="M314.215 587.025C315.115 586.628 316.588 585.173 318.478 583.106C310.387 581.493 306.2 577.414 302.494 576.381C297.287 574.93 292.866 572.077 292.866 572.077L296.9 566.106C296.221 566.053 295.536 565.996 294.843 565.935C282.899 564.878 277.965 562.719 277.815 565.831C277.665 568.942 285.888 577.497 291.813 578.984C297.738 580.47 305.305 582.756 307.139 584.523C308.973 586.291 311.274 588.322 314.215 587.025Z" fill="#75375C" stroke="#263238" stroke-miterlimit="10" stroke-linecap="round" stroke-linejoin="round"/>
<path d="M328.245 446.332C328.245 446.332 330.402 456.396 335.194 465.981C339.987 475.566 350.53 485.631 358.198 491.382C365.866 497.133 390.548 519.179 402.769 536.672C404.303 538.868 398.455 546.257 391.267 552.728C384.078 559.197 380.963 561.594 384.796 562.792C388.63 563.991 397.736 563.511 406.842 555.844C415.947 548.176 421.939 543.143 424.813 536.913C426.251 533.798 418.344 529.965 413.551 525.89C408.759 521.816 391.026 494.979 385.515 482.518C380.003 470.057 366.105 452.325 355.801 446.094" fill="#263238"/>
<path d="M328.245 446.332C328.245 446.332 330.402 456.396 335.194 465.981C339.987 475.566 350.53 485.631 358.198 491.382C365.866 497.133 390.548 519.179 402.769 536.672C404.303 538.868 398.455 546.257 391.267 552.728C384.078 559.197 380.963 561.594 384.796 562.792C388.63 563.991 397.736 563.511 406.842 555.844C415.947 548.176 421.939 543.143 424.813 536.913C426.251 533.798 418.344 529.965 413.551 525.89C408.759 521.816 391.026 494.979 385.515 482.518C380.003 470.057 366.105 452.325 355.801 446.094" stroke="#263238" stroke-miterlimit="10" stroke-linecap="round" stroke-linejoin="round"/>
<path d="M424.816 536.912C426.254 533.796 418.347 529.962 413.554 525.889C409.524 522.463 396.348 502.947 388.979 489.412L372.667 503.83C382.804 513.21 395.185 525.816 402.77 536.672C404.304 538.868 398.456 546.257 391.268 552.728C384.08 559.197 380.964 561.594 384.797 562.792C388.632 563.99 397.738 563.511 406.843 555.843C415.95 548.174 421.94 543.143 424.816 536.912Z" fill="white" stroke="#263238" stroke-miterlimit="10" stroke-linecap="round" stroke-linejoin="round"/>
<path d="M419.89 530.555C418.603 532.479 416.929 535.085 414.99 538.35C410.437 546.017 397.977 555.842 396.3 554.166C395.361 553.227 394.424 551.615 393.778 550.376C392.967 551.167 392.128 551.953 391.267 552.728C384.078 559.197 380.963 561.594 384.796 562.792C388.63 563.99 397.736 563.511 406.842 555.843C415.947 548.176 421.939 543.143 424.813 536.913C425.688 535.022 423.115 532.866 419.89 530.555Z" fill="#75375C" stroke="#263238" stroke-miterlimit="10" stroke-linecap="round" stroke-linejoin="round"/>
<path d="M484.964 552.488H403.489V556.323H484.964V552.488Z" fill="white" stroke="#263238" stroke-miterlimit="10" stroke-linecap="round" stroke-linejoin="round"/>
<path d="M410.917 449.687L396.658 585.985C396.595 586.629 397.101 587.188 397.75 587.188C398.294 587.188 398.754 586.79 398.834 586.251L420.024 449.686H410.917V449.687Z" fill="white" stroke="#263238" stroke-miterlimit="10" stroke-linecap="round" stroke-linejoin="round"/>
<path d="M476.096 449.687L490.355 585.985C490.419 586.629 489.912 587.188 489.265 587.188C488.721 587.188 488.261 586.79 488.181 586.251L466.991 449.686H476.096V449.687Z" fill="white" stroke="#263238" stroke-miterlimit="10" stroke-linecap="round" stroke-linejoin="round"/>
<path d="M450.216 449.688L450.929 586.088C450.932 586.696 450.441 587.19 449.834 587.19H449.818C449.236 587.19 448.754 586.734 448.724 586.152L441.11 449.688H450.216Z" fill="white" stroke="#263238" stroke-miterlimit="10" stroke-linecap="round" stroke-linejoin="round"/>
<path d="M480.631 451.125H405.184C401.469 451.125 398.456 448.114 398.456 444.397V435.806C398.456 432.091 401.468 429.078 405.184 429.078H480.632C484.347 429.078 487.36 432.091 487.36 435.806V444.397C487.359 448.113 484.346 451.125 480.631 451.125Z" fill="#75375C"/>
<mask id="mask0_36_6439" style="mask-type:luminance" maskUnits="userSpaceOnUse" x="398" y="429" width="90" height="23">
<path d="M480.631 451.125H405.184C401.469 451.125 398.456 448.114 398.456 444.397V435.806C398.456 432.091 401.468 429.078 405.184 429.078H480.632C484.347 429.078 487.36 432.091 487.36 435.806V444.397C487.359 448.113 484.346 451.125 480.631 451.125Z" fill="white"/>
</mask>
<g mask="url(#mask0_36_6439)">
<path opacity="0.2" d="M480.631 429.08H406.911L404.711 433.693C404.711 433.693 472.788 434.874 472.788 438.809C472.788 442.743 473.969 447.86 460.589 447.86C449.757 447.86 413.402 448.376 399.945 448.572C400.482 449.247 401.14 449.807 401.894 450.235L405.844 451.127H480.631C484.346 451.127 487.359 448.116 487.359 444.399V435.808C487.359 432.091 484.346 429.08 480.631 429.08Z" fill="black"/>
</g>
<path d="M480.631 451.125H405.184C401.469 451.125 398.456 448.114 398.456 444.397V435.806C398.456 432.091 401.468 429.078 405.184 429.078H480.632C484.347 429.078 487.36 432.091 487.36 435.806V444.397C487.359 448.113 484.346 451.125 480.631 451.125Z" stroke="#263238" stroke-miterlimit="10" stroke-linecap="round" stroke-linejoin="round"/>
<path d="M330.162 454.959C328.484 449.447 321.536 438.424 354.844 415.42C372.502 403.224 410.678 393.853 410.678 393.853L414.273 389.779C414.273 389.779 424.576 400.563 444.705 399.844C464.834 399.125 477.295 390.259 479.691 390.978C482.088 391.697 482.327 397.926 481.369 409.668C480.41 421.41 479.212 427.4 469.866 430.276C460.521 433.152 439.913 434.111 425.056 433.871C410.198 433.631 403.01 432.673 403.01 432.673C403.01 432.673 371.14 452.801 351.251 454.239" fill="#263238"/>
<path d="M330.162 454.959C328.484 449.447 321.536 438.424 354.844 415.42C372.502 403.224 410.678 393.853 410.678 393.853L414.273 389.779C414.273 389.779 424.576 400.563 444.705 399.844C464.834 399.125 477.295 390.259 479.691 390.978C482.088 391.697 482.327 397.926 481.369 409.668C480.41 421.41 479.212 427.4 469.866 430.276C460.521 433.152 439.913 434.111 425.056 433.871C410.198 433.631 403.01 432.673 403.01 432.673C403.01 432.673 371.14 452.801 351.251 454.239" stroke="#263238" stroke-miterlimit="10" stroke-linecap="round" stroke-linejoin="round"/>
<path d="M403.969 322.924C402.523 323.379 358.679 332.03 354.845 331.311C351.011 330.592 340.947 321.965 337.352 322.205C333.757 322.445 326.569 323.643 325.85 325.56C325.131 327.478 327.527 333.947 327.527 333.947C327.527 333.947 325.131 337.542 326.329 339.219C327.527 340.897 334.476 336.823 334.476 336.823C334.476 336.823 342.383 342.573 345.978 341.376C349.573 340.178 353.406 338.74 353.406 338.74C353.406 338.74 409.719 342.095 410.438 342.335C411.157 342.575 418.106 344.013 418.825 333.948C419.544 323.883 412.355 320.288 403.969 322.924Z" fill="white" stroke="#263238" stroke-miterlimit="10" stroke-linecap="round" stroke-linejoin="round"/>
<path d="M327.526 333.947L337.352 325.799" stroke="#263238" stroke-miterlimit="10" stroke-linecap="round" stroke-linejoin="round"/>
<path d="M331.121 330.351L336.393 313.816L338.549 314.296L335.914 326.277L331.121 330.351Z" fill="#263238"/>
<path d="M369.702 340.416C369.702 340.416 311.471 356.472 302.126 355.273C292.781 354.075 289.905 350.002 287.748 350.002C285.591 350.002 279.601 352.878 276.965 352.639C274.329 352.399 271.213 351.68 271.213 353.358C271.213 355.035 273.61 357.671 275.047 357.671C276.485 357.671 282.236 357.432 282.236 357.432C282.236 357.432 270.973 360.787 270.494 362.943C270.015 365.099 271.453 367.017 273.61 367.496C275.766 367.975 276.725 368.934 276.725 368.934C276.725 368.934 277.684 372.529 279.122 374.205C280.56 375.883 284.873 376.602 289.665 375.643C294.457 374.684 302.845 370.371 304.762 369.172C306.68 367.974 364.908 362.703 369.222 361.744C373.536 360.786 378.807 360.786 380.485 357.91C382.162 355.034 369.702 340.416 369.702 340.416Z" fill="white"/>
<mask id="mask1_36_6439" style="mask-type:luminance" maskUnits="userSpaceOnUse" x="270" y="340" width="111" height="37">
<path d="M369.702 340.416C369.702 340.416 311.471 356.472 302.126 355.273C292.781 354.075 289.905 350.002 287.748 350.002C285.591 350.002 279.601 352.878 276.965 352.639C274.329 352.399 271.213 351.68 271.213 353.358C271.213 355.035 273.61 357.671 275.047 357.671C276.485 357.671 282.236 357.432 282.236 357.432C282.236 357.432 270.973 360.787 270.494 362.943C270.015 365.099 271.453 367.017 273.61 367.496C275.766 367.975 276.725 368.934 276.725 368.934C276.725 368.934 277.684 372.529 279.122 374.205C280.56 375.883 284.873 376.602 289.665 375.643C294.457 374.684 302.845 370.371 304.762 369.172C306.68 367.974 364.908 362.703 369.222 361.744C373.536 360.786 378.807 360.786 380.485 357.91C382.162 355.034 369.702 340.416 369.702 340.416Z" fill="white"/>
</mask>
<g mask="url(#mask1_36_6439)">
<path d="M299.283 366.869C289.279 366.869 291.503 356.866 288.168 358.534C285.259 359.988 273.894 361.443 270.671 365.111C271.147 366.285 272.226 367.187 273.61 367.494C275.766 367.974 276.725 368.932 276.725 368.932C276.725 368.932 277.684 372.527 279.122 374.204C280.56 375.881 284.873 376.6 289.665 375.641C294.457 374.683 302.845 370.37 304.762 369.172C306.68 367.974 364.91 362.703 369.222 361.744C372.707 360.97 376.818 360.819 379.152 359.273C379.98 358.438 380.485 357.909 380.485 357.909L374.305 351.865C374.305 351.865 309.286 366.869 299.283 366.869Z" fill="#75375C"/>
</g>
<mask id="mask2_36_6439" style="mask-type:luminance" maskUnits="userSpaceOnUse" x="270" y="340" width="111" height="37">
<path d="M369.702 340.416C369.702 340.416 311.471 356.472 302.126 355.273C292.781 354.075 289.905 350.002 287.748 350.002C285.591 350.002 279.601 352.878 276.965 352.639C274.329 352.399 271.213 351.68 271.213 353.358C271.213 355.035 273.61 357.671 275.047 357.671C276.485 357.671 282.236 357.432 282.236 357.432C282.236 357.432 270.973 360.787 270.494 362.943C270.015 365.099 271.453 367.017 273.61 367.496C275.766 367.975 276.725 368.934 276.725 368.934C276.725 368.934 277.684 372.529 279.122 374.205C280.56 375.883 284.873 376.602 289.665 375.643C294.457 374.684 302.845 370.371 304.762 369.172C306.68 367.974 364.908 362.703 369.222 361.744C373.536 360.786 378.807 360.786 380.485 357.91C382.162 355.034 369.702 340.416 369.702 340.416Z" fill="white"/>
</mask>
<g mask="url(#mask2_36_6439)">
<path opacity="0.5" d="M299.283 366.869C289.279 366.869 291.503 356.866 288.168 358.534C285.259 359.988 273.894 361.443 270.671 365.111C271.147 366.285 272.226 367.187 273.61 367.494C275.766 367.974 276.725 368.932 276.725 368.932C276.725 368.932 277.684 372.527 279.122 374.204C280.56 375.881 284.873 376.6 289.665 375.641C294.457 374.683 302.845 370.37 304.762 369.172C306.68 367.974 364.91 362.703 369.222 361.744C372.707 360.97 376.818 360.819 379.152 359.273C379.98 358.438 380.485 357.909 380.485 357.909L374.305 351.865C374.305 351.865 309.286 366.869 299.283 366.869Z" fill="white"/>
</g>
<path d="M369.702 340.416C369.702 340.416 311.471 356.472 302.126 355.273C292.781 354.075 289.905 350.002 287.748 350.002C285.591 350.002 279.601 352.878 276.965 352.639C274.329 352.399 271.213 351.68 271.213 353.358C271.213 355.035 273.61 357.671 275.047 357.671C276.485 357.671 282.236 357.432 282.236 357.432C282.236 357.432 270.973 360.787 270.494 362.943C270.015 365.099 271.453 367.017 273.61 367.496C275.766 367.975 276.725 368.934 276.725 368.934C276.725 368.934 277.684 372.529 279.122 374.205C280.56 375.883 284.873 376.602 289.665 375.643C294.457 374.684 302.845 370.371 304.762 369.172C306.68 367.974 364.908 362.703 369.222 361.744C373.536 360.786 378.807 360.786 380.485 357.91C382.162 355.034 369.702 340.416 369.702 340.416Z" stroke="#263238" stroke-miterlimit="10" stroke-linecap="round" stroke-linejoin="round"/>
<path d="M418.825 281.707C418.825 281.707 413.552 296.086 406.843 305.671C400.134 315.256 397.258 325.32 401.572 336.103C405.886 346.886 415.231 349.283 415.231 349.283C415.231 349.283 411.876 380.914 412.835 389.3C413.793 397.687 426.733 407.512 446.143 408.231C465.553 408.95 482.327 402.001 482.327 395.29C482.327 388.581 468.668 352.876 468.668 345.447C468.668 338.019 469.866 314.775 463.397 293.927C456.926 273.081 434.161 266.372 418.825 281.707Z" fill="#75375C"/>
<mask id="mask3_36_6439" style="mask-type:luminance" maskUnits="userSpaceOnUse" x="399" y="273" width="84" height="136">
<path d="M418.825 281.707C418.825 281.707 413.552 296.086 406.843 305.671C400.134 315.256 397.258 325.32 401.572 336.103C405.886 346.886 415.231 349.283 415.231 349.283C415.231 349.283 411.876 380.914 412.835 389.3C413.793 397.687 426.733 407.512 446.143 408.231C465.553 408.95 482.327 402.001 482.327 395.29C482.327 388.581 468.668 352.876 468.668 345.447C468.668 338.019 469.866 314.775 463.397 293.927C456.926 273.081 434.161 266.372 418.825 281.707Z" fill="white"/>
</mask>
<g mask="url(#mask3_36_6439)">
<path opacity="0.2" d="M463.396 293.929C459.91 282.698 451.693 275.58 442.457 273.791C438.001 274.778 425.837 277.632 422.799 278.346C421.433 279.322 420.1 280.431 418.825 281.708C418.825 281.708 413.552 296.086 406.843 305.671C402.345 312.097 399.583 318.741 399.544 325.671C417.226 329.849 444.22 336.652 441.546 337.415C437.656 338.527 420.984 329.635 425.986 335.192C430.988 340.749 457.661 366.313 449.881 364.089C442.101 361.866 424.874 343.527 429.32 352.419C433.765 361.311 445.991 375.759 442.101 375.759C438.211 375.759 417.649 355.198 424.874 367.424C432.099 379.649 464.886 399.1 454.328 401.878C448.234 403.483 435.302 403.053 427.796 404.323C432.882 406.49 439.076 407.968 446.143 408.23C465.553 408.949 482.327 401.999 482.327 395.29C482.327 388.58 468.668 352.875 468.668 345.446C468.668 338.021 469.866 314.777 463.396 293.929Z" fill="black"/>
</g>
<path d="M418.825 281.707C418.825 281.707 413.552 296.086 406.843 305.671C400.134 315.256 397.258 325.32 401.572 336.103C405.886 346.886 415.231 349.283 415.231 349.283C415.231 349.283 411.876 380.914 412.835 389.3C413.793 397.687 426.733 407.512 446.143 408.231C465.553 408.95 482.327 402.001 482.327 395.29C482.327 388.581 468.668 352.876 468.668 345.447C468.668 338.019 469.866 314.775 463.397 293.927C456.926 273.081 434.161 266.372 418.825 281.707Z" stroke="#263238" stroke-miterlimit="10" stroke-linecap="round" stroke-linejoin="round"/>
<path d="M421.771 339.855C421.771 339.855 439.373 368.289 465.099 376.413" stroke="#263238" stroke-miterlimit="10" stroke-linecap="round" stroke-linejoin="round"/>
<path d="M419.74 344.594C419.74 344.594 426.51 366.935 444.112 377.767" stroke="#263238" stroke-miterlimit="10" stroke-linecap="round" stroke-linejoin="round"/>
<path d="M423.371 326.696C423.371 326.696 439.276 319.763 445.799 315.277" stroke="#263238" stroke-miterlimit="10" stroke-linecap="round" stroke-linejoin="round"/>
<path d="M416.846 328.326C416.846 328.326 422.555 329.55 437.235 328.326" stroke="#263238" stroke-miterlimit="10" stroke-linecap="round" stroke-linejoin="round"/>
<path d="M417.387 285.303C417.387 285.303 412.833 287.939 407.322 293.689C401.812 299.44 375.212 339.698 375.212 339.698C375.212 339.698 383.12 356.233 385.516 356.711C387.913 357.191 429.608 321.486 433.442 317.173C437.277 312.859 439.674 304.952 438.475 301.598" fill="#75375C"/>
<mask id="mask4_36_6439" style="mask-type:luminance" maskUnits="userSpaceOnUse" x="375" y="285" width="64" height="72">
<path d="M417.387 285.303C417.387 285.303 412.833 287.939 407.322 293.689C401.812 299.44 375.212 339.698 375.212 339.698C375.212 339.698 383.12 356.233 385.516 356.711C387.913 357.191 429.608 321.486 433.442 317.173C437.277 312.859 439.674 304.952 438.475 301.598" fill="white"/>
</mask>
<g mask="url(#mask4_36_6439)">
<path opacity="0.2" d="M433.442 317.173C437.277 312.859 439.674 304.951 438.475 301.598L429.009 294.283L425.987 297.407C425.987 297.407 425.777 309.677 414.874 316.301C403.97 322.924 399.314 322.969 397.647 331.304C395.98 339.639 401.537 341.863 394.868 342.974C388.2 344.086 383.755 344.641 383.755 349.088C383.755 350.407 383.904 352.903 384.256 355.686C384.757 356.271 385.191 356.647 385.52 356.712C387.913 357.19 429.608 321.486 433.442 317.173Z" fill="black"/>
</g>
<path d="M417.387 285.303C417.387 285.303 412.833 287.939 407.322 293.689C401.812 299.44 375.212 339.698 375.212 339.698C375.212 339.698 383.12 356.233 385.516 356.711C387.913 357.191 429.608 321.486 433.442 317.173C437.277 312.859 439.674 304.952 438.475 301.598" stroke="#263238" stroke-miterlimit="10" stroke-linecap="round" stroke-linejoin="round"/>
<path d="M366.107 342.095C366.107 342.095 373.535 359.827 375.212 361.744C376.89 363.662 385.756 362.463 388.632 360.307C391.508 358.15 391.028 353.837 391.028 353.837C391.028 353.837 380.006 334.428 378.807 333.469C377.609 332.51 377.13 334.667 372.098 336.345C367.065 338.021 365.148 338.74 366.107 342.095Z" fill="white" stroke="#263238" stroke-miterlimit="10" stroke-linecap="round" stroke-linejoin="round"/>
<path d="M378.088 236.418C378.088 236.418 377.609 243.367 378.807 245.524C380.006 247.681 383.361 249.838 383.361 252.712C383.361 255.588 380.964 259.421 381.683 261.578C382.402 263.735 386.237 263.975 386.237 263.975C386.237 263.975 393.425 272.841 395.582 275.957C397.739 279.072 398.697 277.874 402.051 276.915C405.407 275.957 412.595 269.727 416.669 264.934C420.743 260.14 414.033 245.524 405.167 235.699C396.301 225.875 383.121 226.114 380.245 228.99C377.369 231.865 378.088 236.418 378.088 236.418Z" fill="white"/>
<mask id="mask5_36_6439" style="mask-type:luminance" maskUnits="userSpaceOnUse" x="377" y="227" width="41" height="51">
<path d="M378.088 236.418C378.088 236.418 377.609 243.367 378.807 245.524C380.006 247.681 383.361 249.838 383.361 252.712C383.361 255.588 380.964 259.421 381.683 261.578C382.402 263.735 386.237 263.975 386.237 263.975C386.237 263.975 393.425 272.841 395.582 275.957C397.739 279.072 398.697 277.874 402.051 276.915C405.407 275.957 412.595 269.727 416.669 264.934C420.743 260.14 414.033 245.524 405.167 235.699C396.301 225.875 383.121 226.114 380.245 228.99C377.369 231.865 378.088 236.418 378.088 236.418Z" fill="white"/>
</mask>
<g mask="url(#mask5_36_6439)">
<path d="M397.088 229.703C395.977 235.179 394.868 244.429 398.201 250.725C403.202 260.172 407.092 265.174 404.314 272.954C403.818 274.339 403.307 275.559 402.799 276.641C406.383 275.103 412.875 269.398 416.669 264.934C420.743 260.141 414.033 245.525 405.167 235.7C402.703 232.969 399.904 231.038 397.088 229.703Z" fill="#75375C"/>
</g>
<mask id="mask6_36_6439" style="mask-type:luminance" maskUnits="userSpaceOnUse" x="377" y="227" width="41" height="51">
<path d="M378.088 236.418C378.088 236.418 377.609 243.367 378.807 245.524C380.006 247.681 383.361 249.838 383.361 252.712C383.361 255.588 380.964 259.421 381.683 261.578C382.402 263.735 386.237 263.975 386.237 263.975C386.237 263.975 393.425 272.841 395.582 275.957C397.739 279.072 398.697 277.874 402.051 276.915C405.407 275.957 412.595 269.727 416.669 264.934C420.743 260.14 414.033 245.524 405.167 235.699C396.301 225.875 383.121 226.114 380.245 228.99C377.369 231.865 378.088 236.418 378.088 236.418Z" fill="white"/>
</mask>
<g mask="url(#mask6_36_6439)">
<path opacity="0.5" d="M397.088 229.703C395.977 235.179 394.868 244.429 398.201 250.725C403.202 260.172 407.092 265.174 404.314 272.954C403.818 274.339 403.307 275.559 402.799 276.641C406.383 275.103 412.875 269.398 416.669 264.934C420.743 260.141 414.033 245.525 405.167 235.7C402.703 232.969 399.904 231.038 397.088 229.703Z" fill="white"/>
</g>
<mask id="mask7_36_6439" style="mask-type:luminance" maskUnits="userSpaceOnUse" x="377" y="227" width="41" height="51">
<path d="M378.088 236.418C378.088 236.418 377.609 243.367 378.807 245.524C380.006 247.681 383.361 249.838 383.361 252.712C383.361 255.588 380.964 259.421 381.683 261.578C382.402 263.735 386.237 263.975 386.237 263.975C386.237 263.975 393.425 272.841 395.582 275.957C397.739 279.072 398.697 277.874 402.051 276.915C405.407 275.957 412.595 269.727 416.669 264.934C420.743 260.14 414.033 245.524 405.167 235.699C396.301 225.875 383.121 226.114 380.245 228.99C377.369 231.865 378.088 236.418 378.088 236.418Z" fill="white"/>
</mask>
<g mask="url(#mask7_36_6439)">
<path d="M383.361 246.721C383.361 246.721 383.361 243.126 387.675 245.523" stroke="#263238" stroke-miterlimit="10" stroke-linecap="round" stroke-linejoin="round"/>
</g>
<mask id="mask8_36_6439" style="mask-type:luminance" maskUnits="userSpaceOnUse" x="377" y="227" width="41" height="51">
<path d="M378.088 236.418C378.088 236.418 377.609 243.367 378.807 245.524C380.006 247.681 383.361 249.838 383.361 252.712C383.361 255.588 380.964 259.421 381.683 261.578C382.402 263.735 386.237 263.975 386.237 263.975C386.237 263.975 393.425 272.841 395.582 275.957C397.739 279.072 398.697 277.874 402.051 276.915C405.407 275.957 412.595 269.727 416.669 264.934C420.743 260.14 414.033 245.524 405.167 235.699C396.301 225.875 383.121 226.114 380.245 228.99C377.369 231.865 378.088 236.418 378.088 236.418Z" fill="white"/>
</mask>
<g mask="url(#mask8_36_6439)">
<path d="M386.433 250.062L387.003 253.37C387.003 253.37 389.627 254.283 391.566 250.86" stroke="#263238" stroke-miterlimit="10" stroke-linecap="round" stroke-linejoin="round"/>
</g>
<path d="M378.088 236.418C378.088 236.418 377.609 243.367 378.807 245.524C380.006 247.681 383.361 249.838 383.361 252.712C383.361 255.588 380.964 259.421 381.683 261.578C382.402 263.735 386.237 263.975 386.237 263.975C386.237 263.975 393.425 272.841 395.582 275.957C397.739 279.072 398.697 277.874 402.051 276.915C405.407 275.957 412.595 269.727 416.669 264.934C420.743 260.14 414.033 245.524 405.167 235.699C396.301 225.875 383.121 226.114 380.245 228.99C377.369 231.865 378.088 236.418 378.088 236.418Z" stroke="#263238" stroke-miterlimit="10" stroke-linecap="round" stroke-linejoin="round"/>
<path d="M370.66 225.873L370.624 226.831L370.181 238.574L383.121 240.252L385.997 235.22V240.731C385.997 240.731 391.508 240.012 397.739 242.408C403.969 244.805 411.877 261.818 411.398 268.768C410.919 275.717 404.929 277.155 405.648 287.698C406.367 298.242 422.421 308.786 434.642 302.077C446.863 295.367 448.781 286.74 453.812 288.417C458.844 290.095 466.513 300.399 471.304 285.781C476.096 271.163 473.941 261.818 462.678 249.837C451.415 237.855 442.549 238.814 441.112 229.229C439.674 219.644 436.558 206.703 426.254 199.515C415.95 192.327 401.093 191.847 388.392 197.358C375.692 202.869 370.66 219.644 370.66 225.873Z" fill="#263238"/>
<mask id="mask9_36_6439" style="mask-type:luminance" maskUnits="userSpaceOnUse" x="370" y="193" width="104" height="112">
<path d="M370.66 225.873L370.624 226.831L370.181 238.574L383.121 240.252L385.997 235.22V240.731C385.997 240.731 391.508 240.012 397.739 242.408C403.969 244.805 411.877 261.818 411.398 268.768C410.919 275.717 404.929 277.155 405.648 287.698C406.367 298.242 422.421 308.786 434.642 302.077C446.863 295.367 448.781 286.74 453.812 288.417C458.844 290.095 466.513 300.399 471.304 285.781C476.096 271.163 473.941 261.818 462.678 249.837C451.415 237.855 442.549 238.814 441.112 229.229C439.674 219.644 436.558 206.703 426.254 199.515C415.95 192.327 401.093 191.847 388.392 197.358C375.692 202.869 370.66 219.644 370.66 225.873Z" fill="white"/>
</mask>
<g mask="url(#mask9_36_6439)">
<path d="M377.866 231.378C377.78 231.378 377.696 231.369 377.61 231.35C376.224 231.038 376.032 228.636 375.902 222.811C375.868 221.303 375.833 219.743 375.738 218.499C375.727 218.376 375.715 218.273 375.704 218.188C374.564 219.566 372.116 225.296 370.28 230.411L369.006 229.954C373.904 216.305 375.502 216.504 376.025 216.582C376.958 216.708 377.054 217.934 377.088 218.396C377.186 219.677 377.223 221.256 377.257 222.782C377.31 225.186 377.398 229.135 377.91 229.965C378.107 229.81 378.581 229.298 379.419 227.622C380.83 224.8 382.074 223.502 383.372 223.572C384.976 223.645 385.806 225.77 386.411 227.322C386.593 227.785 386.78 228.263 386.905 228.452C387.5 228.611 389.613 226.454 390.744 225.293C391.077 224.951 391.409 224.61 391.731 224.287C392.24 223.778 392.913 223.211 393.655 223.321C394.407 223.434 394.778 224.137 395.172 224.88C395.535 225.567 395.945 226.347 396.695 226.945C397.123 227.288 397.348 227.235 397.434 227.215C398.412 226.979 399.591 224.352 400.959 221.308C401.277 220.6 401.614 219.849 401.976 219.066C402.422 218.097 403.036 216.968 404.032 217.064C405.302 217.158 405.875 219.137 406.746 222.129C407.454 224.569 408.257 227.336 409.444 228.862C409.743 229.247 410.171 229.683 410.56 229.633C411.621 229.469 412.787 226.336 413.483 224.463C413.91 223.315 414.278 222.325 414.648 221.708C415.028 221.074 415.514 220.955 415.804 220.967C416.807 221.001 417.488 222.329 418.429 224.168C419.133 225.544 420.097 227.427 420.896 227.747C421.055 227.809 421.114 227.781 421.148 227.766C421.674 227.5 422.13 225.758 422.495 224.358C422.921 222.732 423.362 221.051 424.145 219.877C424.62 219.165 425.24 218.743 425.99 218.622C427.758 218.338 429.734 219.866 431.05 220.891C430.981 220.204 430.837 219.252 430.713 218.424C430.034 213.925 429.839 211.737 430.966 211.121C431.491 210.834 432.117 210.999 432.825 211.618C433.765 212.441 434.991 213.813 436.289 215.266C438.77 218.047 442.531 222.25 444.05 221.842C444.474 221.73 444.696 221.084 444.807 220.56L446.132 220.844C445.853 222.144 445.27 222.92 444.398 223.151C442.223 223.727 439.251 220.617 435.28 216.167C434.01 214.747 432.813 213.404 431.935 212.637C431.789 212.509 431.681 212.436 431.608 212.394C431.305 213.251 431.807 216.575 432.053 218.221C432.534 221.407 432.634 222.258 432.01 222.654C431.736 222.828 431.398 222.815 431.104 222.621C430.874 222.467 430.581 222.24 430.246 221.977C429.183 221.15 427.397 219.776 426.208 219.956C425.834 220.017 425.536 220.229 425.272 220.626C424.616 221.612 424.204 223.181 423.807 224.699C423.282 226.703 422.83 228.433 421.759 228.973C421.468 229.12 420.994 229.243 420.395 229.005C419.125 228.497 418.16 226.609 417.226 224.786C416.802 223.96 416.186 222.756 415.816 222.397C415.813 222.4 415.812 222.403 415.811 222.405C415.505 222.914 415.14 223.896 414.755 224.934C413.753 227.63 412.615 230.686 410.767 230.971C409.942 231.095 409.135 230.667 408.377 229.694C407.03 227.962 406.189 225.063 405.446 222.505C404.981 220.906 404.349 218.728 403.901 218.415C403.901 218.47 403.636 218.703 403.206 219.632C402.846 220.411 402.512 221.157 402.195 221.862C400.497 225.641 399.376 228.138 397.754 228.529C397.116 228.682 396.481 228.504 395.851 228C394.882 227.225 394.359 226.234 393.976 225.511C393.801 225.18 393.562 224.726 393.433 224.652C393.439 224.662 393.225 224.71 392.691 225.242C392.373 225.56 392.045 225.896 391.715 226.236C389.47 228.542 388.036 229.924 386.799 229.822C386.379 229.783 386.025 229.568 385.78 229.201C385.573 228.89 385.386 228.414 385.152 227.812C384.762 226.814 384.036 224.956 383.311 224.924C383.089 224.878 382.181 225.124 380.631 228.226C379.528 230.429 378.704 231.378 377.866 231.378Z" fill="#575757"/>
<path d="M404.796 285.78C404.796 285.78 408.15 273.28 411.504 277.243C414.857 281.206 417.297 282.426 417.602 279.072C417.907 275.718 417.602 270.84 420.956 275.414C424.31 279.988 432.542 284.56 433.151 277.548C433.761 270.535 434.676 261.083 438.639 265.962C442.602 270.84 445.956 274.498 446.262 271.755C446.567 269.011 449.311 266.877 450.53 269.926C451.75 272.975 452.664 276.024 453.579 269.011C454.494 261.998 450.225 254.375 454.799 256.206C459.373 258.035 461.507 264.134 461.507 260.78C461.507 257.426 456.019 253.463 460.898 254.681C465.776 255.901 466.385 258.949 466.996 257.12C467.605 255.291 464.251 251.021 468.521 251.021" stroke="#575757" stroke-miterlimit="10"/>
</g>
<path d="M370.66 225.873L370.624 226.831L370.181 238.574L383.121 240.252L385.997 235.22V240.731C385.997 240.731 391.508 240.012 397.739 242.408C403.969 244.805 411.877 261.818 411.398 268.768C410.919 275.717 404.929 277.155 405.648 287.698C406.367 298.242 422.421 308.786 434.642 302.077C446.863 295.367 448.781 286.74 453.812 288.417C458.844 290.095 466.513 300.399 471.304 285.781C476.096 271.163 473.941 261.818 462.678 249.837C451.415 237.855 442.549 238.814 441.112 229.229C439.674 219.644 436.558 206.703 426.254 199.515C415.95 192.327 401.093 191.847 388.392 197.358C375.692 202.869 370.66 219.644 370.66 225.873Z" stroke="#263238" stroke-miterlimit="10" stroke-linecap="round" stroke-linejoin="round"/>
<path d="M91.024 588.121H586.509" stroke="#263238" stroke-miterlimit="10"/>
</svg>
